<svg width="82" height="85" viewBox="0 0 82 85" fill="none" xmlns="http://www.w3.org/2000/svg">
    <path fill-rule="evenodd" clip-rule="evenodd" d="M45.6877 50.882C45.6877 57.262 40.4977 62.451 34.1187 62.451C27.7387 62.451 22.5497 57.261 22.5497 50.881C22.5497 44.503 27.7397 39.313 34.1197 39.313C34.8737 39.313 35.6107 39.388 36.3257 39.527C35.5787 38.498 34.9047 37.414 34.3097 36.281C34.2457 36.281 34.1827 36.276 34.1197 36.276C26.0657 36.276 19.5137 42.828 19.5137 50.882C19.5137 58.935 26.0657 65.487 34.1187 65.487C42.1727 65.487 48.7247 58.935 48.7247 50.882C48.7247 50.175 48.6707 49.481 48.5737 48.8C47.3697 48.358 46.2067 47.832 45.0927 47.226C45.4767 48.376 45.6877 49.605 45.6877 50.882Z" fill="url(#paint0_linear_2_32)"/>
    <path fill-rule="evenodd" clip-rule="evenodd" d="M57.65 50.4059C56.961 50.4059 56.281 50.371 55.606 50.319C55.611 50.507 55.62 50.693 55.62 50.882C55.62 62.7379 45.975 72.384 34.118 72.384C22.262 72.384 12.616 62.7379 12.616 50.882C12.616 39.7859 21.065 30.6279 31.866 29.4979C31.678 28.6029 31.533 27.692 31.438 26.766C29.688 26.958 27.977 27.324 26.341 27.878L26.133 27.948L22.355 18.825L19.766 19.898L23.549 29.0289L23.352 29.127C21.468 30.064 19.715 31.237 18.14 32.615L17.975 32.761L10.98 25.768L9 27.7479L15.994 34.741L15.849 34.907C14.471 36.481 13.297 38.2349 12.36 40.1189L12.263 40.316L3.133 36.533L2.059 39.122L11.182 42.902L11.112 43.11C10.446 45.073 10.036 47.144 9.895 49.264L9.88 49.484H0V52.2859H9.883L9.898 52.506C10.039 54.6269 10.449 56.6969 11.115 58.66L11.185 58.8689L2.062 62.6489L3.136 65.2369L12.266 61.4539L12.364 61.651C13.3 63.535 14.474 65.2889 15.852 66.8639L15.997 67.0289L9.004 74.021L10.984 76.0009L17.978 69.009L18.143 69.1549C19.718 70.5329 21.472 71.7069 23.356 72.6429L23.552 72.7399L19.77 81.87L22.356 82.94L26.136 73.817L26.345 73.887C28.309 74.553 30.379 74.9619 32.5 75.1029L32.72 75.1179V85H35.52V75.1169L35.74 75.1019C37.861 74.9609 39.932 74.551 41.895 73.885L42.104 73.815L45.883 82.938L48.472 81.8639L44.689 72.734L44.885 72.636C46.769 71.7 48.523 70.526 50.098 69.148L50.263 69.0029L57.256 75.996L59.236 74.0159L52.244 67.022L52.389 66.857C53.768 65.282 54.941 63.528 55.877 61.644L55.975 61.448L65.105 65.23L66.179 62.6419L57.056 58.8619L57.126 58.6539C57.793 56.6889 58.202 54.618 58.343 52.499L58.358 52.2789H68.237V49.478H64.582C62.372 50.079 60.05 50.4059 57.65 50.4059Z" fill="url(#paint1_linear_2_32)"/>
    <mask id="mask0_2_32" style="mask-type:alpha" maskUnits="userSpaceOnUse" x="34" y="0" width="48" height="48">
        <path d="M34.0605 0H81.8695V47.809H34.0605V0Z" fill="white"/>
    </mask>
    <g mask="url(#mask0_2_32)">
        <path fill-rule="evenodd" clip-rule="evenodd" d="M57.9645 0C44.7625 0 34.0605 10.702 34.0605 23.905C34.0605 37.107 44.7625 47.809 57.9645 47.809C71.1665 47.809 81.8705 37.107 81.8705 23.905C81.8695 10.702 71.1665 0 57.9645 0ZM57.9645 2.823C69.5885 2.823 79.0465 12.28 79.0465 23.905C79.0465 35.528 69.5885 44.985 57.9645 44.985C46.3405 44.985 36.8845 35.528 36.8845 23.905C36.8845 12.28 46.3405 2.823 57.9645 2.823Z" fill="url(#paint2_linear_2_32)"/>
    </g>
    <defs>
        <linearGradient id="paint0_linear_2_32" x1="34.1192" y1="36.276" x2="34.1192" y2="65.487" gradientUnits="userSpaceOnUse">
            <stop stop-color="#7955A1"/>
            <stop offset="1" stop-color="#DA549B"/>
        </linearGradient>
        <linearGradient id="paint1_linear_2_32" x1="34.1185" y1="18.825" x2="34.1185" y2="85" gradientUnits="userSpaceOnUse">
            <stop stop-color="#7955A1"/>
            <stop offset="1" stop-color="#DA549B"/>
        </linearGradient>
        <linearGradient id="paint2_linear_2_32" x1="57.9655" y1="0" x2="57.9655" y2="47.809" gradientUnits="userSpaceOnUse">
            <stop stop-color="#7955A1"/>
            <stop offset="1" stop-color="#DA549B"/>
        </linearGradient>
    </defs>
</svg>
