<svg width="86" height="85" viewBox="0 0 86 85" fill="none" xmlns="http://www.w3.org/2000/svg">
    <mask id="mask0_2_46" style="mask-type:alpha" maskUnits="userSpaceOnUse" x="0" y="16" width="62" height="69">
        <path d="M0 16.9059H61.856V84.9999H0V16.9059Z" fill="white"/>
    </mask>
    <g mask="url(#mask0_2_46)">
        <path fill-rule="evenodd" clip-rule="evenodd" d="M29.68 78.3959C28.159 81.1789 26.447 82.6149 24.667 82.6489H24.615C21.555 82.6489 18.512 78.5859 17.596 77.0129C17.423 76.7189 17.112 76.4939 16.766 76.4429C15.227 76.1829 14.138 75.5599 13.55 74.6099C12.46 72.8119 13.274 70.2879 13.274 70.2699C13.464 69.6829 13.187 69.0599 12.617 68.8179C7.80998 66.7609 7.37798 62.2659 7.53398 59.7759C8.67398 60.4159 9.79898 60.7789 10.871 60.8659C11.061 60.8829 11.251 60.8999 11.423 60.8999C12.012 60.8999 12.599 60.8139 13.17 60.6579L12.478 58.3759C12.15 58.4799 11.804 58.5139 11.458 58.5139C10.196 58.5309 8.81298 57.9609 7.30898 56.8199C7.29198 56.8029 7.27398 56.8029 7.27398 56.7859L7.25698 56.7679C-1.54302 50.9079 4.04098 42.2279 4.28298 41.8659C4.42198 41.6409 4.49098 41.3809 4.47398 41.1219C4.09398 35.7449 5.02698 31.7859 7.25698 29.3479C9.10698 27.3259 11.303 27.0149 11.942 26.9629C17.405 28.8989 13.811 32.8229 13.828 33.0309C13.828 33.6889 14.364 34.2069 15.003 34.2069C15.66 34.2069 16.179 33.6709 16.179 33.0309C16.179 32.7899 19.843 27.8099 13.723 25.1309C15.193 22.5209 17.233 22.3809 18.08 22.4509C18.927 23.5569 19.947 24.8709 20.915 25.8399C21.14 26.0649 21.452 26.1849 21.745 26.1849C22.039 26.1849 22.35 26.0649 22.575 25.8399C23.042 25.3729 23.042 24.6299 22.575 24.1619C21.883 23.4539 21.451 22.9859 20.31 21.4819C24.857 17.5399 28.522 19.8219 29.68 20.7729V78.3959ZM61.856 48.9639L60.804 50.0109C60.746 50.0679 60.684 50.1239 60.593 50.2029L59.837 50.8699L59.307 50.4039C58.837 52.5209 57.538 54.7339 54.714 56.6639C54.627 56.6989 54.541 56.7509 54.454 56.8199C52.536 58.2899 50.79 58.8079 49.285 58.3759L48.611 60.6399C49.181 60.8139 49.77 60.8829 50.357 60.8829C51.637 60.8829 52.951 60.5029 54.299 59.7419C54.472 62.2139 54.057 66.7439 49.234 68.8009C48.68 69.0429 48.386 69.6829 48.577 70.2529C48.577 70.2699 49.389 72.8119 48.3 74.5929C47.712 75.5599 46.64 76.1659 45.084 76.4249C44.738 76.4769 44.445 76.6849 44.254 76.9949C43.338 78.5689 40.278 82.6319 37.235 82.6319H37.183C35.386 82.5969 33.674 81.1449 32.083 78.3089V20.8259L32.2 20.7319C31.95 19.9359 31.762 19.1209 31.636 18.2909C31.366 18.4509 31.127 18.6089 30.926 18.7519C29.023 17.3859 24.027 14.8099 18.374 20.0829C16.42 19.8929 13.222 20.6709 11.354 24.6469C10.127 24.8199 7.68998 25.4599 5.61498 27.6899C2.95198 30.5599 1.77698 35.0029 2.13998 40.8979C1.63898 41.7459 0.462981 44.0089 0.0999814 46.8459C-0.298019 50.0609 0.307981 54.5909 5.33798 58.2729C4.75098 61.7129 5.30398 67.6259 10.802 70.5299C10.577 71.7759 10.422 73.9539 11.545 75.8039C12.426 77.2559 13.879 78.2239 15.867 78.6569C16.869 80.2119 20.327 85.0009 24.649 85.0009H24.736C27.053 84.9669 29.145 83.6009 30.96 80.9379C32.792 83.6009 34.884 84.9839 37.183 85.0009H37.27C41.592 85.0009 45.05 80.2119 46.052 78.6569C48.04 78.2239 49.493 77.2559 50.374 75.8039C51.498 73.9539 51.343 71.7759 51.118 70.5299C56.598 67.6259 57.152 61.6959 56.581 58.2729C60.494 55.3969 61.753 52.0069 61.856 48.9649V48.9639Z" fill="url(#paint0_linear_2_46)"/>
    </g>
    <mask id="mask1_2_46" style="mask-type:alpha" maskUnits="userSpaceOnUse" x="33" y="0" width="53" height="49">
        <path d="M33.5781 0H85.9941V48.114H33.5781V0Z" fill="white"/>
    </mask>
    <g mask="url(#mask1_2_46)">
        <path fill-rule="evenodd" clip-rule="evenodd" d="M48.9916 2.77799C46.5366 2.77799 44.0856 3.46599 42.0116 4.86299C38.8136 7.01699 36.7576 10.471 36.3716 14.34C35.9866 18.192 37.3116 21.966 40.0046 24.693C44.7306 29.48 49.5466 34.307 54.2046 38.976C55.8496 40.625 57.4966 42.275 59.1406 43.926C59.3266 44.11 59.5336 44.288 59.7536 44.474L65.2586 38.994L65.3026 38.95C69.9066 34.37 74.6666 29.634 79.3266 24.956C82.5776 21.69 83.8216 17.77 83.0246 13.3C82.1876 8.59999 79.4286 5.25399 75.0476 3.61999C70.5776 1.95399 66.2126 2.67299 62.4246 5.69999C60.4646 7.26799 59.0406 7.26699 57.1756 5.69999C54.8716 3.76399 51.9296 2.77699 48.9916 2.77699V2.77799ZM59.7696 48.114L58.3256 46.844C58.2206 46.752 58.1156 46.663 58.0126 46.575C57.7586 46.36 57.4786 46.123 57.2086 45.852C55.5636 44.2 53.9186 42.552 52.2726 40.903C47.6126 36.233 42.7946 31.403 38.0626 26.61C34.7976 23.304 33.1906 18.732 33.6576 14.07C34.1246 9.38999 36.6146 5.20999 40.4876 2.59999C46.0336 -1.13301 53.7906 -0.708009 58.9326 3.61199C59.7796 4.32499 59.7796 4.32399 60.7226 3.57199C65.2996 -0.0880091 70.5826 -0.956009 76.0016 1.06599C81.3376 3.05499 84.6956 7.12099 85.7116 12.823C86.6746 18.22 85.1776 22.95 81.2616 26.882C76.5966 31.565 71.8346 36.303 67.2286 40.886L67.1836 40.93C65.3136 42.79 63.4436 44.65 61.5766 46.511C61.5096 46.578 61.4366 46.645 61.3276 46.739L59.7706 48.115L59.7696 48.114Z" fill="url(#paint1_linear_2_46)"/>
    </g>
    <defs>
        <linearGradient id="paint0_linear_2_46" x1="30.928" y1="16.9067" x2="30.928" y2="85.0009" gradientUnits="userSpaceOnUse">
            <stop stop-color="#7955A1"/>
            <stop offset="1" stop-color="#DA549B"/>
        </linearGradient>
        <linearGradient id="paint1_linear_2_46" x1="59.7864" y1="0.000732422" x2="59.7864" y2="48.115" gradientUnits="userSpaceOnUse">
            <stop stop-color="#7955A1"/>
            <stop offset="1" stop-color="#DA549B"/>
        </linearGradient>
    </defs>
</svg>
