<svg width="109" height="85" viewBox="0 0 109 85" fill="none" xmlns="http://www.w3.org/2000/svg">
    <mask id="mask0_2_471" style="mask-type:alpha" maskUnits="userSpaceOnUse" x="23" y="17" width="9" height="69">
        <path d="M23.4946 17.3161H31.8946V85.0001H23.4946V17.3161Z" fill="url(#paint0_linear_2_471)"/>
    </mask>
    <g mask="url(#mask0_2_471)">
        <path fill-rule="evenodd" clip-rule="evenodd" d="M29.7256 58.8291C32.6036 55.9721 32.6196 51.9691 29.7616 49.0861C29.0546 48.3721 28.2576 47.7441 27.5616 47.0211C25.9656 45.3621 25.9696 43.2961 27.5686 41.6381C28.2446 40.9371 29.0086 40.3221 29.7016 39.6361C32.6346 36.7361 32.6156 32.6411 29.6576 29.7561C29.0056 29.1181 28.2976 28.5381 27.6556 27.8911C25.9336 26.1541 25.9386 24.0541 27.6696 22.3091C28.3326 21.6391 29.0756 21.0491 29.7396 20.3791C30.6636 19.4441 31.2876 18.3991 31.6166 17.3161H28.5146C28.3026 17.6711 28.0256 18.0211 27.6846 18.3601C26.9276 19.1131 26.0866 19.7861 25.3566 20.5651C22.8916 23.1931 22.9046 27.0791 25.3826 29.6921C26.0956 30.4441 26.9066 31.1021 27.6436 31.8311C29.5186 33.6881 29.5166 35.7651 27.6386 37.6211C26.9016 38.3491 26.0806 38.9991 25.3756 39.7571C22.8706 42.4511 22.8946 46.2921 25.4276 48.9551C26.1636 49.7281 27.0026 50.4031 27.7546 51.1621C29.4616 52.8841 29.4746 54.9441 27.7876 56.6761C27.1526 57.3291 26.4356 57.9021 25.7846 58.5411C22.7296 61.5441 22.7326 65.5471 25.7936 68.5621C26.3756 69.1361 27.0156 69.6521 27.5986 70.2241C29.5446 72.1341 29.5246 74.2501 27.5486 76.1471C26.9366 76.7351 26.2766 77.2731 25.6766 77.8741C23.5876 79.9651 23.0096 82.6021 23.9246 85.0001H27.1796C25.9766 83.4041 26.1186 81.5481 27.6176 80.0161C28.2766 79.3431 29.0206 78.7531 29.6876 78.0861C32.6366 75.1391 32.6276 71.1381 29.6696 68.2111C28.9986 67.5481 28.2586 66.9551 27.5996 66.2811C25.9656 64.6151 25.9616 62.5061 27.5926 60.8281C28.2706 60.1301 29.0356 59.5151 29.7266 58.8281" fill="url(#paint1_linear_2_471)"/>
    </g>
    <mask id="mask1_2_471" style="mask-type:alpha" maskUnits="userSpaceOnUse" x="51" y="17" width="9" height="69">
        <path d="M51.0024 17.3161H59.4024V85.0001H51.0024V17.3161Z" fill="url(#paint2_linear_2_471)"/>
    </mask>
    <g mask="url(#mask1_2_471)">
        <path fill-rule="evenodd" clip-rule="evenodd" d="M57.2694 49.0861C56.5624 48.3721 55.7654 47.7441 55.0694 47.0211C53.4734 45.3621 53.4774 43.2961 55.0764 41.6381C55.7524 40.9371 56.5164 40.3221 57.2094 39.6361C60.1424 36.7361 60.1234 32.6411 57.1654 29.7561C56.5134 29.1181 55.8054 28.5381 55.1634 27.8911C53.4414 26.1541 53.4464 24.0541 55.1774 22.3091C55.8404 21.6391 56.5834 21.0491 57.2474 20.3791C58.1714 19.4441 58.7954 18.3991 59.1254 17.3161H56.0214C55.8094 17.6711 55.5324 18.0211 55.1914 18.3601C54.4344 19.1131 53.5934 19.7861 52.8634 20.5651C50.3984 23.1931 50.4114 27.0791 52.8894 29.6921C53.6024 30.4441 54.4134 31.1021 55.1504 31.8311C57.0254 33.6881 57.0234 35.7651 55.1454 37.6211C54.4084 38.3491 53.5874 38.9991 52.8824 39.7571C50.3774 42.4511 50.4014 46.2921 52.9344 48.9551C53.6704 49.7281 54.5094 50.4031 55.2614 51.1621C56.9684 52.8841 56.9814 54.9441 55.2944 56.6761C54.6594 57.3291 53.9424 57.9021 53.2914 58.5411C50.2364 61.5441 50.2394 65.5471 53.3004 68.5621C53.8824 69.1361 54.5224 69.6521 55.1054 70.2241C57.0514 72.1341 57.0314 74.2501 55.0554 76.1471C54.4434 76.7351 53.7834 77.2731 53.1834 77.8741C51.0954 79.9651 50.5174 82.6021 51.4324 85.0001H54.6874C53.4844 83.4041 53.6274 81.5481 55.1254 80.0161C55.7844 79.3431 56.5284 78.7531 57.1954 78.0861C60.1444 75.1391 60.1354 71.1381 57.1774 68.2111C56.5074 67.5481 55.7664 66.9551 55.1074 66.2811C53.4734 64.6151 53.4694 62.5061 55.1004 60.8281C55.7784 60.1301 56.5434 59.5151 57.2344 58.8281C60.1124 55.9721 60.1284 51.9691 57.2704 49.0861H57.2694Z" fill="url(#paint3_linear_2_471)"/>
    </g>
    <mask id="mask2_2_471" style="mask-type:alpha" maskUnits="userSpaceOnUse" x="0" y="29" width="27" height="46">
        <path d="M0 29.2593H26.431V74.9373H0V29.2593Z" fill="url(#paint4_linear_2_471)"/>
    </mask>
    <g mask="url(#mask2_2_471)">
        <path fill-rule="evenodd" clip-rule="evenodd" d="M4.47989 52.5973L3.29189 51.1573L4.47789 49.7153C7.42189 46.1373 14.3159 38.3673 23.5829 31.7043L21.8429 29.2593C19.9849 30.5883 18.2589 31.9293 16.6949 33.2263C6.79689 41.4403 0.544887 49.9323 0.282887 50.2893C-0.0951132 50.8083 -0.0951132 51.5063 0.283887 52.0263C0.543887 52.3823 6.78389 60.8653 16.6949 69.0883C19.0019 71.0033 21.6549 73.0123 24.5829 74.9373C25.6029 74.4253 26.2289 73.6133 26.4309 72.5533C15.7429 65.5283 7.72289 56.5293 4.47989 52.5973Z" fill="url(#paint5_linear_2_471)"/>
    </g>
    <path fill-rule="evenodd" clip-rule="evenodd" d="M69.7958 46.28C70.2888 47.828 70.5548 49.474 70.5548 51.181C70.5548 58.278 65.9568 64.317 59.5848 66.487C59.7148 66.649 59.8408 66.813 59.9618 66.989C60.3778 67.597 60.7478 68.239 61.1488 68.859C68.2568 66.131 73.3158 59.238 73.3158 51.181C73.3158 50.145 73.2328 49.127 73.0708 48.135L73.0478 48.121C71.9388 47.592 70.8748 46.987 69.8578 46.315L69.7958 46.281V46.28ZM58.7768 17.551C57.3308 17.399 55.8668 17.316 54.3868 17.316C45.0668 17.316 36.3658 20.526 29.0088 24.676L30.7438 27.113C37.8508 23.117 45.9008 20.254 54.3868 20.254L58.7768 17.551ZM108.49 50.291C108.342 50.088 106.269 47.272 102.7 43.377C101.98 44.063 101.225 44.711 100.431 45.313C102.069 47.081 103.375 48.605 104.294 49.719L105.481 51.159L104.296 52.6C101.736 55.71 96.1898 61.987 88.6998 67.951C89.2948 68.832 89.7308 69.777 90.0068 70.755C90.7218 70.195 91.4168 69.638 92.0778 69.089C101.962 60.888 108.228 52.383 108.491 52.024C108.869 51.506 108.869 50.81 108.491 50.292L108.49 50.291ZM80.6818 74.897C80.9518 74.655 81.2068 74.427 81.4428 74.201C81.9328 73.731 82.1078 73.359 82.1088 73.166C82.1088 73.079 82.0718 72.953 81.9858 72.797C74.6348 77.569 66.0438 81.382 56.8698 81.978C56.8558 82.058 56.8398 82.138 56.8268 82.218C56.6598 83.278 56.7688 84.179 57.1268 84.907C64.4658 84.419 71.3628 82.026 77.4518 78.887C77.9448 77.846 78.6398 76.859 79.5298 75.969C79.9178 75.579 80.3068 75.233 80.6818 74.897V74.897ZM48.1698 81.76C48.1798 81.693 48.1938 81.627 48.2058 81.56C43.2068 80.765 38.4108 79.075 33.9328 76.869C33.6138 77.633 33.1538 78.373 32.5328 79.061C32.4418 79.162 32.3468 79.26 32.2528 79.359C37.1428 81.785 42.5288 83.701 48.2278 84.539C48.0438 83.676 48.0148 82.742 48.1698 81.761" fill="url(#paint6_linear_2_471)"/>
    <mask id="mask3_2_471" style="mask-type:alpha" maskUnits="userSpaceOnUse" x="78" y="50" width="10" height="36">
        <path d="M78.9829 50.6063H87.3809V85.0003H78.9829V50.6063Z" fill="url(#paint7_linear_2_471)"/>
    </mask>
    <g mask="url(#mask3_2_471)">
        <path fill-rule="evenodd" clip-rule="evenodd" d="M85.2139 58.8293C87.6139 56.4463 88.0159 53.2693 86.4279 50.6063C85.7689 50.6563 85.1059 50.6883 84.4349 50.6883C83.8459 50.6883 83.2639 50.6623 82.6849 50.6243C82.8729 50.8003 83.0599 50.9783 83.2419 51.1613C84.9489 52.8843 84.9619 54.9443 83.2749 56.6763C82.6399 57.3293 81.9229 57.9023 81.2719 58.5413C78.2169 61.5443 78.2199 65.5473 81.2809 68.5623C81.8629 69.1363 82.5029 69.6513 83.0859 70.2243C85.0319 72.1343 85.0119 74.2503 83.0359 76.1473C82.4239 76.7353 81.7639 77.2733 81.1639 77.8743C79.0759 79.9653 78.4979 82.6023 79.4129 85.0003H82.6679C81.4649 83.4043 81.6069 81.5473 83.1049 80.0163C83.7649 79.3433 84.5089 78.7533 85.1749 78.0863C88.1249 75.1393 88.1159 71.1383 85.1579 68.2113C84.4869 67.5483 83.7469 66.9543 83.0879 66.2813C81.4539 64.6153 81.4499 62.5063 83.0809 60.8283C83.7589 60.1293 84.5239 59.5153 85.2149 58.8283" fill="url(#paint8_linear_2_471)"/>
    </g>
    <path fill-rule="evenodd" clip-rule="evenodd" d="M48.352 66.177C42.418 63.78 38.219 57.964 38.219 51.182C38.219 42.475 45.139 35.359 53.766 35.031C53.508 33.911 52.688 33.045 51.348 32.504C42.35 33.964 35.458 41.779 35.458 51.182C35.458 60.259 41.881 67.862 50.421 69.69C50.384 69.635 50.344 69.584 50.308 69.528C49.913 68.918 49.012 67.296 48.352 66.177V66.177ZM84.435 0C71.159 0 60.397 10.762 60.397 24.038C60.397 37.314 71.159 48.077 84.435 48.077C97.711 48.077 108.474 37.314 108.474 24.038C108.474 10.762 97.71 0 84.434 0H84.435ZM84.434 2.839C96.124 2.839 105.634 12.349 105.634 24.039C105.634 35.728 96.124 45.238 84.434 45.238C72.745 45.238 63.236 35.728 63.236 24.038C63.236 12.349 72.746 2.839 84.435 2.839" fill="url(#paint9_linear_2_471)"/>
    <defs>
        <linearGradient id="paint0_linear_2_471" x1="27.6946" y1="17.3161" x2="27.6946" y2="85.0001" gradientUnits="userSpaceOnUse">
            <stop stop-color="#7955A1"/>
            <stop offset="1" stop-color="#F93DBB"/>
        </linearGradient>
        <linearGradient id="paint1_linear_2_471" x1="27.6951" y1="17.3161" x2="27.6951" y2="85.0001" gradientUnits="userSpaceOnUse">
            <stop stop-color="#7955A1"/>
            <stop offset="1" stop-color="#F93DBB"/>
        </linearGradient>
        <linearGradient id="paint2_linear_2_471" x1="55.2024" y1="17.3161" x2="55.2024" y2="85.0001" gradientUnits="userSpaceOnUse">
            <stop stop-color="#7955A1"/>
            <stop offset="1" stop-color="#F93DBB"/>
        </linearGradient>
        <linearGradient id="paint3_linear_2_471" x1="55.203" y1="17.3161" x2="55.203" y2="85.0001" gradientUnits="userSpaceOnUse">
            <stop stop-color="#7955A1"/>
            <stop offset="1" stop-color="#F93DBB"/>
        </linearGradient>
        <linearGradient id="paint4_linear_2_471" x1="13.2155" y1="29.2593" x2="13.2155" y2="74.9373" gradientUnits="userSpaceOnUse">
            <stop stop-color="#7955A1"/>
            <stop offset="1" stop-color="#F93DBB"/>
        </linearGradient>
        <linearGradient id="paint5_linear_2_471" x1="13.2152" y1="29.2593" x2="13.2152" y2="74.9373" gradientUnits="userSpaceOnUse">
            <stop stop-color="#7955A1"/>
            <stop offset="1" stop-color="#F93DBB"/>
        </linearGradient>
        <linearGradient id="paint6_linear_2_471" x1="68.8915" y1="17.316" x2="68.8915" y2="84.907" gradientUnits="userSpaceOnUse">
            <stop stop-color="#7955A1"/>
            <stop offset="1" stop-color="#F93DBB"/>
        </linearGradient>
        <linearGradient id="paint7_linear_2_471" x1="83.1819" y1="50.6063" x2="83.1819" y2="85.0003" gradientUnits="userSpaceOnUse">
            <stop stop-color="#7955A1"/>
            <stop offset="1" stop-color="#F93DBB"/>
        </linearGradient>
        <linearGradient id="paint8_linear_2_471" x1="83.1824" y1="50.6063" x2="83.1824" y2="85.0003" gradientUnits="userSpaceOnUse">
            <stop stop-color="#7955A1"/>
            <stop offset="1" stop-color="#F93DBB"/>
        </linearGradient>
        <linearGradient id="paint9_linear_2_471" x1="71.966" y1="0" x2="71.966" y2="69.69" gradientUnits="userSpaceOnUse">
            <stop stop-color="#7955A1"/>
            <stop offset="1" stop-color="#F93DBB"/>
        </linearGradient>
    </defs>
</svg>
