<svg width="113" height="85" viewBox="0 0 113 85" fill="none" xmlns="http://www.w3.org/2000/svg">
    <path fill-rule="evenodd" clip-rule="evenodd" d="M51.4019 34.454C46.9339 30.551 43.6259 26.599 42.0519 24.591L41.6519 24.08L42.0519 23.57C43.6149 21.574 46.9039 17.644 51.3529 13.75C56.5059 9.23698 64.5329 3.68298 73.5109 2.84798L73.5869 2.84398L78.0859 2.84798C87.0429 3.68098 95.0529 9.21298 100.195 13.707C104.665 17.613 107.972 21.563 109.544 23.57L109.944 24.08L109.544 24.591C107.982 26.584 104.697 30.511 100.243 34.411C95.0899 38.924 87.0629 44.478 78.0859 45.313L78.0479 45.316L73.5109 45.313C64.5549 44.48 56.5439 38.948 51.4009 34.454H51.4019ZM73.9299 48.088C74.6189 48.137 75.2319 48.16 75.7969 48.16C76.4079 48.16 77.0749 48.133 77.8329 48.076L77.9429 48.066C82.0119 47.749 86.1879 46.538 90.3549 44.468C94.2539 42.532 98.1849 39.84 102.04 36.465C108.54 30.773 112.586 25.105 112.755 24.866C113.086 24.396 113.086 23.764 112.754 23.293C112.586 23.055 108.526 17.375 102.04 11.696C98.1859 8.32098 94.2539 5.62898 90.3549 3.69198C86.1899 1.62198 82.0129 0.411977 77.9449 0.0949766L77.6649 0.0719766C76.9759 0.0239766 76.3639 0.000976562 75.7979 0.000976562C75.1849 0.000976562 74.5169 0.0279766 73.7559 0.0849766L73.6519 0.0949766C69.5839 0.411977 65.4079 1.62298 61.2399 3.69198C57.3399 5.62898 53.4099 8.32198 49.5549 11.696C42.9849 17.449 39.0089 23.056 38.8429 23.292C38.5089 23.764 38.5089 24.396 38.8419 24.868C39.0099 25.105 43.0209 30.744 49.5549 36.465C53.4099 39.84 57.3409 42.532 61.2399 44.468C65.4079 46.538 69.5839 47.748 73.6519 48.066L73.9309 48.088H73.9299Z" fill="url(#paint0_linear_2_492)"/>
    <path fill-rule="evenodd" clip-rule="evenodd" d="M75.7978 10.613C68.3718 10.613 62.3298 16.654 62.3298 24.081C62.3298 31.506 68.3718 37.547 75.7978 37.547C83.2228 37.547 89.2648 31.506 89.2648 24.081C89.2648 16.654 83.2228 10.613 75.7978 10.613ZM75.7978 40.243C66.8858 40.243 59.6348 32.993 59.6348 24.081C59.6348 15.168 66.8848 7.91803 75.7978 7.91803C84.7098 7.91803 91.9598 15.168 91.9598 24.081C91.9598 32.992 84.7098 40.242 75.7978 40.242" fill="url(#paint1_linear_2_492)"/>
    <mask id="mask0_2_492" style="mask-type:alpha" maskUnits="userSpaceOnUse" x="0" y="17" width="82" height="69">
        <path d="M0 17.2614H81.253V85.0004H0V17.2614Z" fill="url(#paint2_linear_2_492)"/>
    </mask>
    <g mask="url(#mask0_2_492)">
        <path fill-rule="evenodd" clip-rule="evenodd" d="M2.846 82.1573V28.2213H6.759V75.4653C6.757 76.2003 7.329 76.8253 8.061 76.8873L11.699 77.1983C12.69 77.2813 13.69 77.3853 14.671 77.5053C14.865 77.5283 15.059 77.5553 15.252 77.5833C15.388 77.6033 15.525 77.6223 15.661 77.6403C16.301 77.7263 16.962 77.8143 17.623 77.9203C17.91 77.9663 18.197 78.0173 18.483 78.0693L18.818 78.1293C19.39 78.2293 19.981 78.3343 20.559 78.4483C20.914 78.5193 21.269 78.5963 21.624 78.6733L21.774 78.7053C22.284 78.8153 22.884 78.9453 23.478 79.0873C23.883 79.1843 24.295 79.2883 24.703 79.3923C25.375 79.5653 25.89 79.7023 26.373 79.8353C26.777 79.9483 27.183 80.0673 27.588 80.1863C28.132 80.3463 28.686 80.5183 29.238 80.6943C29.638 80.8223 30.04 80.9543 30.439 81.0883C30.924 81.2513 31.447 81.4353 32.089 81.6673C32.484 81.8043 32.881 81.9543 33.254 82.0963L33.407 82.1563H2.846V82.1573ZM78.406 51.0383V82.1543H47.866L48.073 82.0743C48.431 81.9373 48.82 81.7943 49.298 81.6243C49.82 81.4353 50.357 81.2473 50.893 81.0663L52.145 80.6613C52.607 80.5143 53.102 80.3623 53.751 80.1703C54.13 80.0583 54.577 79.9273 55.018 79.8063C55.525 79.6643 56.058 79.5233 56.652 79.3743C57.071 79.2673 57.491 79.1603 57.912 79.0613C58.466 78.9273 59.029 78.8063 59.606 78.6843L59.834 78.6343C60.164 78.5623 60.494 78.4903 60.83 78.4243C61.423 78.3073 62.029 78.2013 62.617 78.0993L63.775 77.8963C64.457 77.7893 65.138 77.6963 65.777 77.6123C65.935 77.5913 66.093 77.5683 66.252 77.5453C66.414 77.5213 66.577 77.4973 66.738 77.4763C67.731 77.3563 68.736 77.2533 69.725 77.1703L73.187 76.8883C73.922 76.8283 74.496 76.2033 74.493 75.4663V51.1113L71.647 50.8293V74.1563L69.492 74.3323C60.917 75.0443 52.541 77.0823 44.596 80.3863L42.049 81.4443V33.3043L39.203 30.1213V81.4433L36.809 80.4433C28.877 77.1203 20.51 75.0713 11.939 74.3543L9.605 74.1613V20.2373L11.591 20.4033C19.871 21.0873 27.955 23.0583 35.621 26.2613L36.771 26.7393L34.461 22.7373C27.196 19.9513 19.596 18.2113 11.83 17.5673L8.302 17.2673C7.512 17.2003 6.83 17.7833 6.764 18.5653C6.761 18.6053 6.759 18.6483 6.759 18.6893V25.3773H1.423C0.638 25.3773 0 26.0153 0 26.8013V83.5783C0 84.3623 0.638 85.0013 1.423 85.0013H79.83C80.614 85.0013 81.253 84.3623 81.253 83.5783V50.6613L78.406 51.0373V51.0383Z" fill="url(#paint3_linear_2_492)"/>
    </g>
    <mask id="mask1_2_492" style="mask-type:alpha" maskUnits="userSpaceOnUse" x="0" y="0" width="114" height="85">
        <path d="M0 85H113.005V0H0V85Z" fill="url(#paint4_linear_2_492)"/>
    </mask>
    <g mask="url(#mask1_2_492)">
        <path fill-rule="evenodd" clip-rule="evenodd" d="M68.0381 25.428H83.5601V22.733H68.0381V25.428Z" fill="url(#paint5_linear_2_492)"/>
    </g>
    <defs>
        <linearGradient id="paint0_linear_2_492" x1="75.7977" y1="0.000976562" x2="75.7977" y2="48.16" gradientUnits="userSpaceOnUse">
            <stop stop-color="#7955A1"/>
            <stop offset="1" stop-color="#F93DBB"/>
        </linearGradient>
        <linearGradient id="paint1_linear_2_492" x1="75.7973" y1="7.91803" x2="75.7973" y2="40.243" gradientUnits="userSpaceOnUse">
            <stop stop-color="#7955A1"/>
            <stop offset="1" stop-color="#F93DBB"/>
        </linearGradient>
        <linearGradient id="paint2_linear_2_492" x1="40.6265" y1="17.2614" x2="40.6265" y2="85.0004" gradientUnits="userSpaceOnUse">
            <stop stop-color="#7955A1"/>
            <stop offset="1" stop-color="#F93DBB"/>
        </linearGradient>
        <linearGradient id="paint3_linear_2_492" x1="40.6265" y1="17.2621" x2="40.6265" y2="85.0013" gradientUnits="userSpaceOnUse">
            <stop stop-color="#7955A1"/>
            <stop offset="1" stop-color="#F93DBB"/>
        </linearGradient>
        <linearGradient id="paint4_linear_2_492" x1="56.5025" y1="0" x2="56.5025" y2="85" gradientUnits="userSpaceOnUse">
            <stop stop-color="#7955A1"/>
            <stop offset="1" stop-color="#F93DBB"/>
        </linearGradient>
        <linearGradient id="paint5_linear_2_492" x1="75.7991" y1="22.733" x2="75.7991" y2="25.428" gradientUnits="userSpaceOnUse">
            <stop stop-color="#7955A1"/>
            <stop offset="1" stop-color="#F93DBB"/>
        </linearGradient>
    </defs>
</svg>
