<svg width="79" height="85" viewBox="0 0 79 85" fill="none" xmlns="http://www.w3.org/2000/svg">
    <mask id="mask0_2_760" style="mask-type:alpha" maskUnits="userSpaceOnUse" x="0" y="17" width="10" height="68">
        <path d="M0 17.1604H9.832V84.9994H0V17.1604Z" fill="white"/>
    </mask>
    <g mask="url(#mask0_2_760)">
        <path fill-rule="evenodd" clip-rule="evenodd" d="M7.0059 17.1604C7.0079 17.2794 7.0069 17.3974 7.0059 17.5154L7.0029 23.0784C7.0009 27.6504 6.9979 32.3784 7.0169 37.0294C7.0209 38.1794 6.7739 39.0934 6.2609 39.8234C5.7559 40.5404 5.2109 41.2584 4.6849 41.9514C3.9549 42.9134 3.2009 43.9074 2.5209 44.9424C1.6939 46.2004 0.757902 47.6224 0.359902 49.2004C-0.493098 52.5844 0.175902 55.7414 2.2949 58.3314C3.4289 59.7174 4.5549 61.1714 5.7379 62.7724C6.6189 63.9644 7.0399 65.3154 7.0269 66.9024C6.9869 71.4154 6.9939 75.4194 7.0009 79.6584C7.0029 81.2384 7.0059 82.8504 7.0069 84.5314L7.0049 84.9994H9.8009L9.7999 75.7744C9.7999 74.8884 9.7929 74.0014 9.7859 73.1144C9.7699 71.1254 9.7539 69.0694 9.8259 67.0574C9.9079 64.7374 9.2299 62.6574 7.7509 60.6954C7.2639 60.0504 6.7619 59.4154 6.2609 58.7814C5.6559 58.0154 5.0299 57.2234 4.4459 56.4294C3.3259 54.9094 2.7829 53.6304 2.6819 52.2834C2.5569 50.6284 3.0819 49.0374 4.3299 47.2764C4.9599 46.3884 5.6369 45.5054 6.2929 44.6514C6.8309 43.9504 7.3879 43.2254 7.9199 42.4944C8.8829 41.1724 9.7759 39.6984 9.7819 37.8864C9.7999 33.1264 9.7999 28.3674 9.7999 23.6094V17.1724" fill="url(#paint0_linear_2_760)"/>
    </g>
    <mask id="mask1_2_760" style="mask-type:alpha" maskUnits="userSpaceOnUse" x="8" y="17" width="13" height="68">
        <path d="M8.2915 17.1326H20.3925V84.9996H8.2915V17.1326Z" fill="white"/>
    </mask>
    <g mask="url(#mask1_2_760)">
        <path fill-rule="evenodd" clip-rule="evenodd" d="M15.7126 34.8226V24.9596C16.4476 26.3046 17.5986 27.2996 17.6796 29.2946C17.7586 31.2896 17.1166 32.3486 15.7126 34.8226ZM20.3496 28.6966C20.1436 26.9806 19.0136 25.3246 18.0166 23.8636C17.6036 23.2586 17.2136 22.6876 16.9106 22.1496C15.9716 20.4846 15.7186 18.5506 15.7116 17.1326H12.9736C12.9756 17.2576 12.9746 18.0526 12.9736 18.1776V18.3756L12.9756 23.0326C12.9786 27.6746 12.9836 32.4726 12.9496 37.1926C12.9416 38.2036 12.7826 39.1156 12.4896 39.8276C11.8956 41.2676 11.1976 42.7056 10.5226 44.0976C10.2326 44.6946 9.94256 45.2916 9.65856 45.8926C8.08856 49.2186 7.86956 52.6146 9.00956 55.9886C9.56156 57.6246 10.3846 59.1646 11.1786 60.6546L11.2766 60.8396C12.5406 63.2096 13.0876 65.3346 12.9976 67.5266C12.9186 69.4596 12.9376 71.4196 12.9566 73.3146C12.9646 74.1436 12.9726 74.9726 12.9726 75.8016V78.2386C12.9706 80.1426 12.9696 81.7236 12.9786 84.0416L12.9836 84.9936L15.8036 85.0006V84.0426C15.8176 77.7886 15.8276 72.8476 15.7956 66.3896C15.7916 65.5326 15.7386 64.4206 15.3556 63.4216C14.9536 62.3666 14.4756 61.3346 14.0146 60.3366C13.6626 59.5766 13.2996 58.7896 12.9766 58.0106C12.8226 57.6366 12.6586 57.2606 12.4956 56.8856C11.9486 55.6316 11.3836 54.3336 11.1696 53.0516C10.8336 51.0336 11.2476 48.8776 12.4006 46.6446C14.1546 43.2456 15.6406 40.2216 17.2026 37.0306C17.4926 36.4376 18.0356 35.5876 18.3986 34.9666C19.5026 33.0736 20.6266 31.0036 20.3496 28.6966Z" fill="url(#paint1_linear_2_760)"/>
    </g>
    <path fill-rule="evenodd" clip-rule="evenodd" d="M39.896 26.633C35.006 26.633 31.028 30.611 31.028 35.501C31.028 40.391 35.006 44.37 39.896 44.37C44.786 44.37 48.765 40.391 48.765 35.501C48.765 30.611 44.787 26.633 39.896 26.633ZM39.896 47.073C33.515 47.073 28.323 41.883 28.323 35.501C28.323 29.12 33.515 23.929 39.896 23.929C46.277 23.929 51.469 29.119 51.469 35.501C51.469 41.883 46.277 47.074 39.896 47.074V47.073ZM65.93 20.383C60.28 20.383 55.684 24.979 55.684 30.629C55.684 36.279 60.28 40.876 65.93 40.876C71.58 40.876 76.177 36.279 76.177 30.629C76.177 24.979 71.58 20.383 65.93 20.383ZM65.93 43.58C58.79 43.58 52.98 37.77 52.98 30.63C52.98 23.489 58.79 17.679 65.93 17.679C73.071 17.679 78.88 23.489 78.88 30.629C78.88 37.769 73.071 43.579 65.93 43.579" fill="url(#paint2_linear_2_760)"/>
    <mask id="mask2_2_760" style="mask-type:alpha" maskUnits="userSpaceOnUse" x="34" y="0" width="24" height="23">
        <path d="M34.8179 0H57.6259V22.808H34.8179V0Z" fill="white"/>
    </mask>
    <g mask="url(#mask2_2_760)">
        <path fill-rule="evenodd" clip-rule="evenodd" d="M46.2219 2.704C41.4249 2.704 37.5219 6.607 37.5219 11.404C37.5219 16.201 41.4249 20.104 46.2219 20.104C51.0189 20.104 54.9219 16.201 54.9219 11.404C54.9219 6.607 51.0189 2.704 46.2219 2.704ZM46.2219 22.808C39.9329 22.808 34.8179 17.692 34.8179 11.404C34.8179 5.116 39.9329 0 46.2219 0C52.5099 0 57.6259 5.116 57.6259 11.404C57.6259 17.692 52.5099 22.808 46.2219 22.808Z" fill="url(#paint3_linear_2_760)"/>
    </g>
    <path fill-rule="evenodd" clip-rule="evenodd" d="M68.4821 2.76699C66.0461 2.76699 64.0641 4.74799 64.0641 7.18399C64.0641 9.61899 66.0461 11.601 68.4821 11.601C70.9171 11.601 72.8991 9.61899 72.8991 7.18399C72.8991 4.74799 70.9171 2.76699 68.4821 2.76699ZM68.4821 14.305C64.5551 14.305 61.3601 11.11 61.3601 7.18399C61.3601 3.25699 64.5551 0.0629883 68.4821 0.0629883C72.4081 0.0629883 75.602 3.25699 75.602 7.18299C75.602 11.11 72.4081 14.305 68.4821 14.305ZM30.3921 62.15C30.3921 62.917 29.7701 63.539 29.0031 63.539C28.2361 63.539 27.6141 62.917 27.6141 62.149C27.6141 61.383 28.2361 60.761 29.0041 60.761C29.7701 60.761 30.3921 61.383 30.3921 62.15ZM21.192 39.059C21.192 39.826 20.5701 40.448 19.8041 40.448C19.0371 40.448 18.4151 39.826 18.4151 39.059C18.4151 38.292 19.0371 37.67 19.8041 37.67C20.5701 37.67 21.192 38.292 21.192 39.059ZM25.6381 35.476C25.6381 34.839 25.6851 34.214 25.7661 33.6C25.7231 33.605 25.6821 33.613 25.6381 33.613C25.0521 33.613 24.574 33.135 24.574 32.549C24.574 31.962 25.0521 31.485 25.6381 31.485C25.8321 31.485 26.012 31.541 26.168 31.632C26.416 30.75 26.7451 29.903 27.1501 29.1C26.6861 28.896 26.1761 28.78 25.6381 28.78C23.5601 28.78 21.8701 30.47 21.8701 32.549C21.8701 34.626 23.5601 36.316 25.6381 36.316H25.6651C25.6481 36.037 25.6381 35.758 25.6381 35.476ZM48.238 47.055C47.481 47.602 46.67 48.077 45.813 48.469C46.181 49.08 46.478 49.708 46.635 50.394C46.736 50.957 46.8431 51.694 46.8391 51.906C46.8111 53.12 46.7001 53.523 46.356 54.196C45.876 55.132 45.2211 55.985 44.528 56.888C44.3221 57.158 44.1151 57.426 43.9141 57.698C43.5141 58.235 43.1 58.762 42.687 59.288C42.115 60.018 41.5251 60.77 40.9761 61.546C39.9331 63.021 39.407 64.751 39.413 66.686C39.425 70.317 39.425 73.472 39.425 76.701C39.425 79.052 39.4251 81.443 39.43 84.087V84.847L42.281 84.841V84.084C42.283 82.565 42.2871 81.132 42.2901 79.742C42.2991 75.555 42.3081 71.601 42.2621 66.924C42.246 65.284 42.692 63.89 43.626 62.664C44.096 62.048 44.5791 61.439 45.062 60.831C45.896 59.778 46.7601 58.69 47.548 57.563C49.0401 55.433 49.6791 53.513 49.5601 51.52C49.4671 49.94 49.019 48.444 48.238 47.055ZM40.7901 49.729C40.4951 49.748 40.1971 49.759 39.896 49.759C39.229 49.759 38.573 49.71 37.9291 49.62C38.3981 51.714 38.1971 53.783 37.32 55.799C36.691 57.242 35.965 58.684 35.2621 60.078L35.099 60.402C33.921 62.742 33.383 64.979 33.453 67.242C33.514 69.176 33.5 71.152 33.486 73.065C33.48 73.919 33.474 74.775 33.474 75.629V78.154C33.473 80.11 33.472 81.748 33.48 84.119L33.482 84.879L36.2621 84.869L36.264 84.114C36.278 77.569 36.283 72.869 36.271 66.794C36.268 65.292 36.56 63.951 37.163 62.692C37.753 61.462 38.3981 60.166 39.1931 58.614C40.7281 55.612 41.26 52.632 40.791 49.729H40.7901ZM25.5131 21.264C25.3131 21.696 24.7991 21.886 24.3671 21.687C24.1571 21.59 23.9981 21.417 23.9171 21.2C23.838 20.984 23.8471 20.75 23.9441 20.54C24.0411 20.33 24.2141 20.17 24.4301 20.091C24.5271 20.056 24.6281 20.038 24.7291 20.038C24.8521 20.038 24.975 20.065 25.0911 20.118C25.3011 20.215 25.4591 20.387 25.5401 20.603C25.6201 20.819 25.6101 21.054 25.5131 21.263V21.264ZM28.0761 19.668C27.7471 18.774 27.0891 18.061 26.2241 17.662C25.3571 17.262 24.3881 17.225 23.4941 17.554C22.6 17.884 21.8871 18.542 21.4891 19.407C20.6641 21.193 21.4471 23.317 23.234 24.142C23.7161 24.365 24.2231 24.47 24.7231 24.47C26.0731 24.47 27.3671 23.7 27.9691 22.397C28.3691 21.531 28.4071 20.562 28.0761 19.668ZM24.574 42.933C24.354 42.933 24.1761 43.112 24.1761 43.331C24.1761 43.551 24.3551 43.73 24.574 43.73C24.7941 43.73 24.9731 43.551 24.9731 43.331C24.9731 43.111 24.793 42.933 24.574 42.933ZM24.574 46.433C22.864 46.433 21.4721 45.042 21.4721 43.331C21.4721 41.621 22.864 40.229 24.574 40.229C26.284 40.229 27.6771 41.621 27.6771 43.331C27.6771 45.041 26.285 46.434 24.574 46.434V46.433ZM21.0801 63.186C20.7581 63.186 20.4971 63.448 20.4971 63.769C20.4971 64.09 20.7581 64.352 21.0801 64.352C21.4001 64.352 21.6631 64.09 21.6631 63.769C21.6631 63.449 21.4011 63.186 21.0801 63.186ZM21.0801 67.056C19.2671 67.056 17.793 65.582 17.793 63.769C17.793 61.957 19.2671 60.482 21.0801 60.482C22.8921 60.482 24.3671 61.957 24.3671 63.769C24.3671 65.582 22.8921 67.056 21.0801 67.056ZM27.911 69.158C27.352 69.158 26.8981 69.613 26.8981 70.172C26.8981 70.73 27.352 71.185 27.911 71.185C28.4711 71.185 28.9261 70.73 28.9261 70.172C28.9261 69.613 28.4711 69.158 27.911 69.158ZM27.911 73.762C25.931 73.762 24.321 72.152 24.321 70.172C24.321 68.192 25.931 66.582 27.911 66.582C29.8911 66.582 31.501 68.192 31.501 70.172C31.501 72.152 29.8911 73.762 27.911 73.762ZM21.192 75.516C20.9791 75.516 20.8051 75.69 20.8051 75.903C20.8051 76.117 20.9791 76.291 21.192 76.291C21.4061 76.291 21.5801 76.117 21.5801 75.903C21.5801 75.69 21.4061 75.516 21.192 75.516ZM21.192 78.995C19.488 78.995 18.1011 77.608 18.1011 75.903C18.1011 74.199 19.488 72.813 21.192 72.813C22.897 72.813 24.2841 74.199 24.2841 75.903C24.2841 77.608 22.897 78.995 21.192 78.995ZM27.654 81.13C27.3321 81.13 27.0701 81.392 27.0701 81.714C27.0701 82.034 27.3321 82.296 27.654 82.296C27.974 82.296 28.2361 82.034 28.2361 81.714C28.2361 81.392 27.974 81.131 27.654 81.131V81.13ZM27.654 85C25.8411 85 24.3671 83.526 24.3671 81.714C24.3671 79.901 25.8411 78.427 27.654 78.427C29.465 78.427 30.9401 79.901 30.9401 81.714C30.9401 83.526 29.465 85 27.654 85ZM33.9011 51.386L29.6661 47.075L27.7371 48.97L30.1051 51.381H29.6281H29.5651H19.5981L21.967 48.97L20.0381 47.075L15.8031 51.386L14.4771 52.736L15.8031 54.085L20.0381 58.397L21.967 56.502L19.5981 54.09H29.5651H29.6281H30.1051L27.7371 56.502L29.6661 58.397L33.9011 54.085L35.2271 52.736L33.9011 51.386Z" fill="url(#paint4_linear_2_760)"/>
    <defs>
        <linearGradient id="paint0_linear_2_760" x1="4.91614" y1="17.1604" x2="4.91614" y2="84.9994" gradientUnits="userSpaceOnUse">
            <stop stop-color="#7955A1"/>
            <stop offset="1" stop-color="#F93DBB"/>
        </linearGradient>
        <linearGradient id="paint1_linear_2_760" x1="14.3419" y1="17.1326" x2="14.3419" y2="85.0006" gradientUnits="userSpaceOnUse">
            <stop stop-color="#7955A1"/>
            <stop offset="1" stop-color="#F93DBB"/>
        </linearGradient>
        <linearGradient id="paint2_linear_2_760" x1="53.6015" y1="17.679" x2="53.6015" y2="47.074" gradientUnits="userSpaceOnUse">
            <stop stop-color="#7955A1"/>
            <stop offset="1" stop-color="#F93DBB"/>
        </linearGradient>
        <linearGradient id="paint3_linear_2_760" x1="46.2219" y1="0" x2="46.2219" y2="22.808" gradientUnits="userSpaceOnUse">
            <stop stop-color="#7955A1"/>
            <stop offset="1" stop-color="#F93DBB"/>
        </linearGradient>
        <linearGradient id="paint4_linear_2_760" x1="45.0395" y1="0.0629883" x2="45.0395" y2="85" gradientUnits="userSpaceOnUse">
            <stop stop-color="#7955A1"/>
            <stop offset="1" stop-color="#F93DBB"/>
        </linearGradient>
    </defs>
</svg>
