<svg width="113" height="85" viewBox="0 0 113 85" fill="none" xmlns="http://www.w3.org/2000/svg">
    <path fill-rule="evenodd" clip-rule="evenodd" d="M68.821 78.36L84.02 60.42C81.504 68.202 75.98 74.639 68.822 78.36H68.821ZM61.322 81.091C60.586 81.218 59.846 81.326 59.102 81.413L85.495 50.254C85.5 50.484 85.512 50.71 85.512 50.94C85.512 52.232 85.423 53.501 85.269 54.751L63.417 80.55C62.728 80.755 62.03 80.935 61.322 81.092V81.091ZM40.234 78.265L53.157 63.009C53.638 63.067 54.126 63.099 54.622 63.099C55.408 63.099 56.176 63.022 56.922 62.879L42.847 79.495C41.954 79.125 41.083 78.713 40.234 78.265ZM35.701 75.333L47.825 61.019C48.571 61.523 49.377 61.944 50.228 62.275L37.864 76.871C37.12 76.388 36.399 75.875 35.701 75.333ZM31.681 71.603L44.072 56.975C44.547 57.803 45.116 58.568 45.765 59.259L33.635 73.579C32.955 72.949 32.302 72.291 31.682 71.604L31.681 71.603ZM4.823 52.264L3.736 50.944L4.824 49.624C8.461 45.21 18.113 34.412 30.8 27.2C24.731 33.29 20.974 41.684 20.974 50.94C20.974 60.213 24.744 68.622 30.834 74.714C18.116 67.503 8.456 56.681 4.821 52.263L4.823 52.264ZM40.014 23.73L25.378 41.008C27.91 33.576 33.193 27.406 40.014 23.73ZM47.769 20.818C48.496 20.69 49.226 20.581 49.962 20.492L23.744 51.444C23.741 51.276 23.731 51.11 23.731 50.94C23.731 49.54 23.834 48.162 24.015 46.81L45.523 21.42C46.26 21.192 47.009 20.992 47.769 20.82V20.818ZM54.622 20.205C55.512 20.205 56.397 20.24 57.278 20.301L24.728 58.73C24.434 57.606 24.208 56.455 24.042 55.285L53.745 20.219C54.037 20.212 54.33 20.206 54.622 20.206V20.205ZM42.475 50.439C42.468 50.606 42.463 50.773 42.463 50.94C42.463 52.058 42.617 53.139 42.9 54.167L29.93 69.48C29.361 68.725 28.83 67.943 28.331 67.137L42.475 50.439ZM54.622 41.539C59.806 41.539 64.024 45.756 64.024 50.94C64.024 56.125 59.806 60.343 54.622 60.343C49.438 60.343 45.22 56.125 45.22 50.94C45.22 45.756 49.438 41.539 54.622 41.539ZM104.404 44.445C103.507 45.131 102.564 45.758 101.58 46.325C102.746 47.62 103.703 48.746 104.421 49.619L105.508 50.939L104.418 52.259C100.782 56.672 91.128 67.473 78.438 74.686C84.51 68.596 88.269 60.199 88.269 50.94C88.269 50.554 88.254 50.172 88.241 49.789C86.398 49.765 84.601 49.549 82.871 49.161L55.336 81.667C55.098 81.671 54.861 81.677 54.622 81.677C53.675 81.677 52.732 81.637 51.796 81.568L79.954 48.326C79.054 48.01 78.174 47.65 77.322 47.241L48.56 81.196C48.39 81.169 48.22 81.146 48.052 81.116C47.212 80.934 46.381 80.726 45.568 80.475L74.865 45.888C74.092 45.408 73.348 44.888 72.632 44.332L66.773 51.248C66.776 51.146 66.782 51.044 66.782 50.94C66.782 49.76 66.612 48.619 66.297 47.539L66.287 47.509L70.523 42.508C69.868 41.876 69.244 41.213 68.657 40.518L65.08 44.74C64.616 43.96 64.062 43.24 63.44 42.584L67.02 38.358C66.485 37.571 65.996 36.751 65.547 35.904L61.374 40.832C60.59 40.306 59.739 39.874 58.841 39.541L64.281 33.119C63.899 32.129 63.573 31.112 63.313 30.069L55.874 38.851C55.462 38.808 55.046 38.78 54.624 38.78C53.77 38.78 52.937 38.87 52.133 39.037L62.69 26.574C62.59 25.644 62.533 24.7 62.533 23.742C62.533 23.336 62.546 22.932 62.564 22.53L26.926 64.604C26.472 63.686 26.061 62.742 25.697 61.776L60.524 20.662C60.73 20.692 60.935 20.722 61.141 20.757C61.653 20.867 62.161 20.992 62.665 21.127C62.779 19.977 62.975 18.852 63.233 17.752C60.433 17.194 57.559 16.882 54.623 16.882C24.836 16.882 1.307 48.611 0.321 49.962C-0.107 50.547 -0.107 51.335 0.321 51.922C1.308 53.272 24.854 85 54.622 85C84.421 85 107.934 53.274 108.92 51.923C109.35 51.335 109.35 50.545 108.922 49.959C108.681 49.629 107.093 47.489 104.404 44.445Z" fill="#F93DBB"/>
    <mask id="mask0_18_63" style="mask-type:alpha" maskUnits="userSpaceOnUse" x="64" y="0" width="49" height="48">
        <path d="M64.9492 0H112.225V47.276H64.9492V0Z" fill="white"/>
    </mask>
    <g mask="url(#mask0_18_63)">
        <path fill-rule="evenodd" clip-rule="evenodd" d="M88.5872 0C75.5322 0 64.9492 10.583 64.9492 23.638C64.9492 36.693 75.5322 47.276 88.5872 47.276C101.642 47.276 112.225 36.693 112.225 23.638C112.225 10.583 101.642 0 88.5872 0ZM88.5872 2.792C100.082 2.792 109.433 12.143 109.433 23.638C109.433 35.132 100.082 44.484 88.5872 44.484C77.0922 44.484 67.7402 35.132 67.7402 23.638C67.7402 12.143 77.0922 2.792 88.5872 2.792Z" fill="#F93DBB"/>
    </g>
</svg>
