<svg width="26" height="26" viewBox="0 0 26 26" fill="none" xmlns="http://www.w3.org/2000/svg">
<mask id="mask0_128_164" style="mask-type:alpha" maskUnits="userSpaceOnUse" x="0" y="0" width="26" height="26">
<path d="M25.8131 25.1836V0.18684H0.581041V25.1836H25.8131Z" fill="white"/>
</mask>
<g mask="url(#mask0_128_164)">
<path fill-rule="evenodd" clip-rule="evenodd" d="M6.58143 14.8216L3.60822 17.7674C2.37558 18.9887 2.37558 20.9665 3.60797 22.1867C4.83981 23.4073 6.83616 23.4073 8.06776 22.187L14.0152 16.2943C15.2469 15.074 15.2469 13.0961 14.0152 11.8758C13.6047 11.469 13.6047 10.8094 14.0152 10.4026C14.4258 9.99582 15.0915 9.99582 15.502 10.4026C17.5548 12.4365 17.5548 15.7336 15.502 17.7674L9.55459 23.6601C7.50181 25.694 4.17417 25.694 2.12139 23.6601C0.0675278 21.6265 0.0675278 18.3293 2.12139 16.2943L5.0946 13.3485C5.50516 12.9417 6.17081 12.9417 6.58143 13.3485C6.99199 13.7552 6.99199 14.4148 6.58143 14.8216Z" fill="#F03BBF"/>
<path fill-rule="evenodd" clip-rule="evenodd" d="M22.7867 7.60482C24.0184 6.38373 24.0184 4.4056 22.7867 3.18529C21.5551 1.96498 19.5588 1.96498 18.3272 3.18529L11.7857 9.66654C10.5541 10.8868 10.5541 12.8648 11.7857 14.085C12.1963 14.4918 12.1963 15.1514 11.7857 15.5582C11.3751 15.965 10.7095 15.965 10.2989 15.5582C8.24611 13.5243 8.24611 10.2273 10.2989 8.1934L16.8403 1.71215C18.8931 -0.321741 22.2208 -0.321741 24.2735 1.71215C26.3263 3.74598 26.3263 7.04286 24.2738 9.07777L20.7063 12.6123C20.2958 13.0192 19.6301 13.0192 19.2195 12.6123C18.8089 12.2056 18.8089 11.546 19.2195 11.1392L22.7867 7.60482Z" fill="#F03BBF"/>
</g>
<path fill-rule="evenodd" clip-rule="evenodd" d="M6.42744 7.39455L3.39999 4.39496C3.00576 4.00432 3.00576 3.37104 3.39999 2.98045C3.79421 2.58985 4.43336 2.58985 4.82764 2.98045L7.85509 5.98004C8.24931 6.37068 8.24931 7.00396 7.85509 7.39455C7.46086 7.78515 6.82171 7.78515 6.42744 7.39455Z" fill="#F03BBF"/>
<path fill-rule="evenodd" clip-rule="evenodd" d="M21.5678 22.3947L18.5391 19.3939C18.1451 19.0036 18.1451 18.3707 18.5391 17.9803C18.9331 17.5899 19.5719 17.5899 19.9659 17.9803L22.9946 20.9811C23.3885 21.3714 23.3885 22.0044 22.9946 22.3947C22.6006 22.7851 21.9618 22.7851 21.5678 22.3947Z" fill="#F03BBF"/>
<path fill-rule="evenodd" clip-rule="evenodd" d="M8.15074 1.18748C8.15074 0.635202 8.52733 0.1875 8.99183 0.1875C9.45634 0.1875 9.83289 0.635202 9.83289 1.18748V4.18747C9.83289 4.73975 9.45634 5.1875 8.99183 5.1875C8.52733 5.1875 8.15074 4.73975 8.15074 4.18747V1.18748Z" fill="#F03BBF"/>
<path fill-rule="evenodd" clip-rule="evenodd" d="M24.743 17.7207H21.675C21.1102 17.7207 20.6523 17.2431 20.6523 16.654C20.6523 16.0649 21.1102 15.5874 21.675 15.5874H24.743C25.3078 15.5874 25.7656 16.0649 25.7656 16.654C25.7656 17.2431 25.3078 17.7207 24.743 17.7207Z" fill="#F03BBF"/>
<path fill-rule="evenodd" clip-rule="evenodd" d="M16.5617 20.9208C16.5617 20.3317 17.0196 19.8541 17.5844 19.8541C18.1492 19.8541 18.6071 20.3317 18.6071 20.9208V24.1209C18.6071 24.71 18.1492 25.1875 17.5844 25.1875C17.0196 25.1875 16.5617 24.71 16.5617 24.1209V20.9208Z" fill="#F03BBF"/>
<path fill-rule="evenodd" clip-rule="evenodd" d="M1.59027 7.68685H4.61812C5.17553 7.68685 5.62744 8.05997 5.62744 8.5202C5.62744 8.98043 5.17553 9.35352 4.61812 9.35352H1.59027C1.03286 9.35352 0.581002 8.98043 0.581002 8.5202C0.581002 8.05997 1.03286 7.68685 1.59027 7.68685Z" fill="#F03BBF"/>
</svg>
