<svg width="26" height="27" viewBox="0 0 26 27" fill="none" xmlns="http://www.w3.org/2000/svg">
<path d="M22.2 4.19062C19.7 1.79062 16.5 0.390625 13 0.390625C9.5 0.390625 6.3 1.79062 3.8 4.19062C1.4 6.69062 0 9.99063 0 13.4906C0 16.9906 1.4 20.2906 3.8 22.7906C6.3 25.2906 9.5 26.5906 13 26.5906C16.5 26.5906 19.7 25.1906 22.2 22.7906C24.7 20.2906 26 16.9906 26 13.4906C26 9.99063 24.7 6.69062 22.2 4.19062ZM21.5 22.0906C17.1 26.5906 10.1 26.8906 5.3 22.9906L22.5 5.79063C26.3 10.5906 26 17.6906 21.5 22.0906Z" fill="#F03BBF"/>
</svg>
