<svg width="26" height="26" viewBox="0 0 26 26" fill="none" xmlns="http://www.w3.org/2000/svg">
<circle cx="13" cy="13" r="13" fill="black"/>
<path d="M8.31438 16.112C7.78104 16.112 7.30371 15.992 6.88238 15.752C6.46638 15.512 6.14104 15.1733 5.90638 14.736C5.67171 14.2933 5.55438 13.7813 5.55438 13.2C5.55438 12.6187 5.67171 12.1093 5.90638 11.672C6.14104 11.2293 6.46638 10.888 6.88238 10.648C7.30371 10.408 7.78104 10.288 8.31438 10.288C8.84771 10.288 9.32238 10.408 9.73838 10.648C10.1597 10.888 10.4877 11.2293 10.7224 11.672C10.957 12.1093 11.0744 12.6187 11.0744 13.2C11.0744 13.7813 10.957 14.2933 10.7224 14.736C10.4877 15.1733 10.1597 15.512 9.73838 15.752C9.32238 15.992 8.84771 16.112 8.31438 16.112ZM8.31438 15.376C8.73038 15.376 9.08504 15.2827 9.37838 15.096C9.67171 14.904 9.89038 14.6453 10.0344 14.32C10.1837 13.9893 10.2584 13.616 10.2584 13.2C10.2584 12.784 10.1837 12.4133 10.0344 12.088C9.89038 11.7573 9.67171 11.4987 9.37838 11.312C9.08504 11.12 8.73038 11.024 8.31438 11.024C7.89838 11.024 7.54371 11.12 7.25038 11.312C6.95704 11.4987 6.73571 11.7573 6.58638 12.088C6.44238 12.4133 6.37038 12.784 6.37038 13.2C6.37038 13.616 6.44238 13.9893 6.58638 14.32C6.73571 14.6453 6.95704 14.904 7.25038 15.096C7.54371 15.2827 7.89838 15.376 8.31438 15.376ZM12.0306 10.4H15.4466V11.088H12.7906V12.728H14.8386V13.416H12.7906V16H12.0306V10.4ZM16.2181 10.4H19.6341V11.088H16.9781V12.728H19.0261V13.416H16.9781V16H16.2181V10.4Z" fill="white"/>
</svg>
