<svg width="108" height="86" viewBox="0 0 108 86" fill="none" xmlns="http://www.w3.org/2000/svg">
    <path fill-rule="evenodd" clip-rule="evenodd" d="M83.5718 7.20024e-05C70.4298 7.20024e-05 59.7788 10.6521 59.7788 23.7931C59.7788 36.9331 70.4308 47.5851 83.5718 47.5851C96.7118 47.5851 107.364 36.9331 107.364 23.7931C107.364 10.6531 96.7118 7.20024e-05 83.5718 7.20024e-05ZM83.5718 2.81007C95.1418 2.81007 104.554 12.2231 104.554 23.7931C104.554 35.3631 95.1408 44.7751 83.5718 44.7751C72.0018 44.7751 62.5888 35.3631 62.5888 23.7931C62.5888 12.2231 71.9998 2.81007 83.5718 2.81007Z" fill="url(#paint0_linear_2_410)"/>
    <path fill-rule="evenodd" clip-rule="evenodd" d="M64.9848 41.4984L21.4818 85.0014L19.5098 83.0304L63.0128 39.5274L64.9848 41.4984Z" fill="url(#paint1_linear_2_410)"/>
    <path fill-rule="evenodd" clip-rule="evenodd" d="M29.0449 73.541L26.8809 75.705C27.6859 76.189 28.5109 76.662 29.3509 77.124L31.5309 74.945C30.6899 74.492 29.8589 74.025 29.0449 73.541ZM41.6459 60.941L39.7099 62.877C40.3129 63.568 40.9679 64.213 41.6649 64.81L43.6029 62.872C42.8979 62.284 42.2409 61.64 41.6459 60.94V60.941ZM53.8299 66.586C50.9579 66.586 48.2629 65.819 45.9299 64.488L43.9399 66.478C46.8119 68.275 50.1999 69.319 53.8299 69.319C64.1619 69.319 72.5669 60.915 72.5669 50.583C72.5669 49.526 72.4749 48.491 72.3049 47.481C71.1709 46.941 70.0819 46.321 69.0449 45.629C69.5539 47.189 69.8339 48.855 69.8339 50.583C69.8339 59.407 62.6549 66.586 53.8309 66.586" fill="url(#paint2_linear_2_410)"/>
    <mask id="mask0_2_410" style="mask-type:alpha" maskUnits="userSpaceOnUse" x="0" y="17" width="59" height="58">
        <path d="M0 17.0626H58.158V74.1816H0V17.0626Z" fill="white"/>
    </mask>
    <g mask="url(#mask0_2_410)">
        <path fill-rule="evenodd" clip-rule="evenodd" d="M26.6098 72.0316C15.8068 65.0366 7.68976 55.9316 4.43476 51.9826L3.25976 50.5576L4.43276 49.1316C10.0608 42.2906 30.2528 19.9716 53.8318 19.9716C55.0988 19.9716 56.3558 20.0396 57.6018 20.1636C57.7368 19.1896 57.9198 18.2306 58.1588 17.2936C56.7328 17.1436 55.2888 17.0626 53.8298 17.0626C38.6828 17.0626 25.1828 25.6266 16.5248 32.8106C6.72676 40.9406 0.538762 49.3456 0.279762 49.6996C-0.0942378 50.2126 -0.0942378 50.9036 0.281762 51.4176C0.538762 51.7706 6.71476 60.1676 16.5248 68.3076C18.8418 70.2296 21.5098 72.2506 24.4598 74.1816L26.6098 72.0316Z" fill="url(#paint3_linear_2_410)"/>
    </g>
    <path fill-rule="evenodd" clip-rule="evenodd" d="M107.381 49.7037C107.234 49.5017 105.167 46.6957 101.613 42.8187C100.899 43.4967 100.151 44.1367 99.3639 44.7317C101.005 46.4997 102.31 48.0237 103.228 49.1367L104.402 50.5617L103.229 51.9887C97.6009 58.8287 77.4069 81.1487 53.8309 81.1487C46.8829 81.1487 40.2259 79.1957 34.1439 76.2747L31.9409 78.4777C38.4889 81.7247 45.9339 84.0577 53.8309 84.0577C68.9779 84.0577 82.4779 75.4927 91.1359 68.3087C100.919 60.1917 107.122 51.7727 107.381 51.4187C107.756 50.9057 107.756 50.2167 107.381 49.7037ZM35.0949 50.5837C35.0949 54.2757 36.1719 57.7167 38.0219 60.6207L40.0089 58.6347C38.6249 56.2677 37.8279 53.5187 37.8279 50.5847C37.8279 41.7597 45.0069 34.5807 53.8309 34.5807C56.1509 34.5807 58.3539 35.0807 60.3449 35.9727C59.7659 34.8697 59.2629 33.7227 58.8429 32.5347C57.2459 32.0907 55.5669 31.8477 53.8309 31.8477C43.4999 31.8477 35.0949 40.2527 35.0949 50.5837Z" fill="url(#paint4_linear_2_410)"/>
    <defs>
        <linearGradient id="paint0_linear_2_410" x1="83.5713" y1="7.20024e-05" x2="83.5713" y2="47.5851" gradientUnits="userSpaceOnUse">
            <stop stop-color="#7955A1"/>
            <stop offset="1" stop-color="#F93DBB"/>
        </linearGradient>
        <linearGradient id="paint1_linear_2_410" x1="42.2473" y1="39.5274" x2="42.2473" y2="85.0014" gradientUnits="userSpaceOnUse">
            <stop stop-color="#7955A1"/>
            <stop offset="1" stop-color="#F93DBB"/>
        </linearGradient>
        <linearGradient id="paint2_linear_2_410" x1="49.7239" y1="45.629" x2="49.7239" y2="77.124" gradientUnits="userSpaceOnUse">
            <stop stop-color="#7955A1"/>
            <stop offset="1" stop-color="#F93DBB"/>
        </linearGradient>
        <linearGradient id="paint3_linear_2_410" x1="29.0791" y1="17.0626" x2="29.0791" y2="74.1816" gradientUnits="userSpaceOnUse">
            <stop stop-color="#7955A1"/>
            <stop offset="1" stop-color="#F93DBB"/>
        </linearGradient>
        <linearGradient id="paint4_linear_2_410" x1="69.8015" y1="31.8477" x2="69.8015" y2="84.0577" gradientUnits="userSpaceOnUse">
            <stop stop-color="#7955A1"/>
            <stop offset="1" stop-color="#F93DBB"/>
        </linearGradient>
    </defs>
</svg>
