<svg width="114" height="85" viewBox="0 0 114 85" fill="none" xmlns="http://www.w3.org/2000/svg">
    <path fill-rule="evenodd" clip-rule="evenodd" d="M70.952 51.542C70.952 60.579 63.601 67.931 54.563 67.931C45.526 67.931 38.174 60.579 38.174 51.541C38.174 42.504 45.526 35.153 54.564 35.153C56.406 35.153 58.175 35.463 59.829 36.027L59.959 33.758C59.869 33.525 59.779 33.292 59.696 33.056C58.061 32.602 56.341 32.353 54.563 32.353C43.983 32.353 35.375 40.961 35.375 51.542C35.375 62.122 43.983 70.73 54.563 70.73C65.144 70.73 73.752 62.122 73.752 51.542C73.752 50.952 73.722 50.372 73.668 49.796L70.838 49.708C70.905 50.311 70.952 50.92 70.952 51.542Z" fill="url(#paint0_linear_2_695)"/>
    <mask id="mask0_2_695" style="mask-type:alpha" maskUnits="userSpaceOnUse" x="0" y="16" width="110" height="69">
        <path d="M0 16.7789H109.407V84.9999H0V16.7789Z" fill="url(#paint1_linear_2_695)"/>
    </mask>
    <g mask="url(#mask0_2_695)">
        <path fill-rule="evenodd" clip-rule="evenodd" d="M105.806 45.8179L102.563 47.2079C103.36 48.1149 104.035 48.9119 104.577 49.5689L105.666 50.8909L104.577 52.2139C98.8922 59.1239 78.4961 81.6719 54.7021 81.6719C30.9521 81.6719 10.5261 59.1199 4.83215 52.2089L3.74015 50.8889L4.82915 49.5659C10.5161 42.6549 30.9161 20.1079 54.7021 20.1079C58.3581 20.1079 61.9351 20.6439 65.3921 21.5729L68.0131 18.8249C63.7661 17.5389 59.3101 16.7789 54.7031 16.7789C24.8911 16.7789 1.31015 48.5539 0.321149 49.9059C-0.108851 50.4939 -0.107851 51.2839 0.321149 51.8729C1.30915 53.2259 24.8581 84.9999 54.7011 84.9999C84.5141 84.9999 108.095 53.2249 109.084 51.8719C109.513 51.2849 109.513 50.4959 109.084 49.9089C108.883 49.6329 107.744 48.0939 105.805 45.8179" fill="url(#paint2_linear_2_695)"/>
    </g>
    <path fill-rule="evenodd" clip-rule="evenodd" d="M59.7315 51.6559C59.7315 54.4869 57.4265 56.7909 54.5955 56.7909C51.7645 56.7909 49.4605 54.4869 49.4605 51.6559C49.4605 48.8249 51.7645 46.5209 54.5955 46.5209C57.4265 46.5209 59.7315 48.8249 59.7315 51.6559ZM46.7275 51.6559C46.7275 55.9959 50.2575 59.5249 54.5955 59.5249C58.9355 59.5249 62.4645 55.9949 62.4645 51.6549C62.4645 47.3169 58.9345 43.7869 54.5955 43.7869C50.2565 43.7869 46.7275 47.3169 46.7275 51.6559ZM73.8975 26.9239C68.9545 26.9239 64.9325 30.9459 64.9325 35.8889C64.9325 40.8329 68.9545 44.8549 73.8975 44.8549C78.8415 44.8549 82.8635 40.8329 82.8635 35.8889C82.8635 30.9459 78.8415 26.9239 73.8975 26.9239ZM73.8975 47.5879C67.4465 47.5879 62.1975 42.3409 62.1975 35.8889C62.1975 29.4389 67.4465 24.1899 73.8975 24.1899C80.3485 24.1899 85.5975 29.4379 85.5975 35.8899C85.5975 42.3399 80.3485 47.5879 73.8975 47.5879Z" fill="url(#paint3_linear_2_695)"/>
    <mask id="mask1_2_695" style="mask-type:alpha" maskUnits="userSpaceOnUse" x="87" y="17" width="27" height="28">
        <path d="M87.125 17.8723H113.309V44.0563H87.125V17.8723Z" fill="url(#paint4_linear_2_695)"/>
    </mask>
    <g mask="url(#mask1_2_695)">
        <path fill-rule="evenodd" clip-rule="evenodd" d="M100.217 20.6053C94.506 20.6053 89.858 25.2523 89.858 30.9653C89.858 36.6753 94.506 41.3223 100.218 41.3223C105.928 41.3223 110.576 36.6763 110.576 30.9643C110.576 25.2523 105.929 20.6053 100.217 20.6053ZM100.217 44.0563C92.998 44.0563 87.125 38.1833 87.125 30.9643C87.125 23.7453 92.998 17.8723 100.217 17.8723C107.436 17.8723 113.309 23.7453 113.309 30.9643C113.309 38.1833 107.436 44.0563 100.217 44.0563Z" fill="url(#paint5_linear_2_695)"/>
    </g>
    <mask id="mask2_2_695" style="mask-type:alpha" maskUnits="userSpaceOnUse" x="68" y="0" width="24" height="24">
        <path d="M68.7646 0H91.8216V23.058H68.7646V0Z" fill="url(#paint6_linear_2_695)"/>
    </mask>
    <g mask="url(#mask2_2_695)">
        <path fill-rule="evenodd" clip-rule="evenodd" d="M80.2926 2.733C75.4436 2.733 71.4976 6.679 71.4976 11.529C71.4976 16.379 75.4436 20.324 80.2926 20.324C85.1426 20.324 89.0886 16.378 89.0886 11.529C89.0886 6.679 85.1426 2.733 80.2926 2.733ZM80.2926 23.058C73.9356 23.058 68.7646 17.886 68.7646 11.528C68.7646 5.173 73.9356 0 80.2926 0C86.6506 0 91.8226 5.172 91.8226 11.529C91.8226 17.886 86.6506 23.058 80.2926 23.058Z" fill="url(#paint7_linear_2_695)"/>
    </g>
    <path fill-rule="evenodd" clip-rule="evenodd" d="M102.796 2.79696C100.334 2.79696 98.3306 4.79996 98.3306 7.26196C98.3306 9.72396 100.334 11.728 102.796 11.728C105.258 11.728 107.262 9.72396 107.262 7.26196C107.262 4.79996 105.258 2.79696 102.796 2.79696ZM102.796 14.461C98.8266 14.461 95.5966 11.231 95.5966 7.26196C95.5966 3.29196 98.8266 0.0639648 102.797 0.0639648C106.766 0.0639648 109.995 3.29196 109.995 7.26196C109.995 11.232 106.765 14.462 102.796 14.462V14.461ZM9.5536 34.836C8.7786 34.836 8.1496 34.208 8.1496 33.433C8.1496 32.657 8.7796 32.029 9.5536 32.029C10.3286 32.029 10.9576 32.657 10.9576 33.433C10.9576 34.208 10.3286 34.836 9.5536 34.836ZM5.9996 38.352C5.2236 38.352 4.5946 37.723 4.5946 36.948C4.5946 36.173 5.2246 35.544 5.9986 35.544C6.7736 35.544 7.4026 36.174 7.4026 36.948C7.4026 37.723 6.7736 38.352 5.9986 38.352H5.9996ZM5.3936 34.25C4.6176 34.25 3.9896 33.622 3.9896 32.847C3.9896 32.071 4.6176 31.443 5.3936 31.443C6.1686 31.443 6.7966 32.071 6.7966 32.847C6.7966 33.622 6.1686 34.25 5.3936 34.25ZM7.2856 64.184C7.2856 64.959 6.6566 65.588 5.8816 65.588C5.1066 65.588 4.4776 64.959 4.4776 64.184C4.4776 63.409 5.1066 62.78 5.8816 62.78C6.6566 62.78 7.2856 63.41 7.2856 64.184ZM10.8016 67.74C10.8016 68.515 10.1726 69.143 9.3976 69.143C8.6226 69.143 7.9936 68.515 7.9936 67.739C7.9936 66.964 8.6226 66.336 9.3976 66.336C10.1726 66.336 10.8016 66.964 10.8016 67.739V67.74ZM6.6996 68.345C6.6996 69.12 6.0706 69.749 5.2956 69.749C4.5206 69.749 3.8916 69.119 3.8916 68.345C3.8916 67.57 4.5206 66.941 5.2956 66.941C6.0706 66.941 6.6996 67.57 6.6996 68.345Z" fill="url(#paint8_linear_2_695)"/>
    <defs>
        <linearGradient id="paint0_linear_2_695" x1="43.5956" y1="40.6894" x2="62.104" y2="69.773" gradientUnits="userSpaceOnUse">
            <stop stop-color="#7955A1"/>
            <stop offset="1" stop-color="#F93DBB"/>
        </linearGradient>
        <linearGradient id="paint1_linear_2_695" x1="23.4358" y1="31.5981" x2="48.3387" y2="94.3546" gradientUnits="userSpaceOnUse">
            <stop stop-color="#7955A1"/>
            <stop offset="1" stop-color="#F93DBB"/>
        </linearGradient>
        <linearGradient id="paint2_linear_2_695" x1="23.4348" y1="31.5981" x2="48.3377" y2="94.3546" gradientUnits="userSpaceOnUse">
            <stop stop-color="#7955A1"/>
            <stop offset="1" stop-color="#F93DBB"/>
        </linearGradient>
        <linearGradient id="paint3_linear_2_695" x1="55.0538" y1="31.8655" x2="71.3613" y2="60.0545" gradientUnits="userSpaceOnUse">
            <stop stop-color="#7955A1"/>
            <stop offset="1" stop-color="#F93DBB"/>
        </linearGradient>
        <linearGradient id="paint4_linear_2_695" x1="92.7338" y1="23.5601" x2="105.362" y2="43.4033" gradientUnits="userSpaceOnUse">
            <stop stop-color="#7955A1"/>
            <stop offset="1" stop-color="#F93DBB"/>
        </linearGradient>
        <linearGradient id="paint5_linear_2_695" x1="92.7338" y1="23.5601" x2="105.362" y2="43.4033" gradientUnits="userSpaceOnUse">
            <stop stop-color="#7955A1"/>
            <stop offset="1" stop-color="#F93DBB"/>
        </linearGradient>
        <linearGradient id="paint6_linear_2_695" x1="73.7036" y1="5.00873" x2="84.8242" y2="22.4825" gradientUnits="userSpaceOnUse">
            <stop stop-color="#7955A1"/>
            <stop offset="1" stop-color="#F93DBB"/>
        </linearGradient>
        <linearGradient id="paint7_linear_2_695" x1="73.7038" y1="5.00873" x2="84.8242" y2="22.483" gradientUnits="userSpaceOnUse">
            <stop stop-color="#7955A1"/>
            <stop offset="1" stop-color="#F93DBB"/>
        </linearGradient>
        <linearGradient id="paint8_linear_2_695" x1="26.6196" y1="15.2011" x2="53.0192" y2="78.3645" gradientUnits="userSpaceOnUse">
            <stop stop-color="#7955A1"/>
            <stop offset="1" stop-color="#F93DBB"/>
        </linearGradient>
    </defs>
</svg>
