<svg width="85" height="85" viewBox="0 0 85 85" fill="none" xmlns="http://www.w3.org/2000/svg">
    <path fill-rule="evenodd" clip-rule="evenodd" d="M49.2619 29.888C48.9049 29.888 48.5319 29.851 48.1439 29.777C47.7559 29.703 47.3949 29.614 47.0629 29.509C46.7299 29.404 46.4529 29.293 46.2309 29.176C46.0089 29.059 45.8909 28.952 45.8799 28.853L46.4349 26.709C47.1489 27.349 48.0669 27.669 49.1889 27.669C49.9029 27.669 50.4969 27.494 50.9719 27.143C51.4459 26.792 51.6839 26.2329 51.6839 25.4699C51.6839 25.1739 51.6369 24.903 51.5449 24.6569C51.4529 24.41 51.2859 24.204 51.0449 24.037C50.8059 23.871 50.4819 23.742 50.0749 23.65C49.6689 23.557 49.1519 23.511 48.5229 23.511H46.5449L47.3579 16.709H53.2919L53.0519 19H49.1329L48.8189 21.5319C50.6179 21.5569 51.9269 21.8739 52.7459 22.4839C53.5659 23.0939 53.9759 24.058 53.9759 25.377C53.9759 26.092 53.8489 26.729 53.5959 27.29C53.3439 27.85 53.0019 28.322 52.5709 28.704C52.1399 29.086 51.6409 29.379 51.0739 29.582C50.5069 29.785 49.9029 29.8869 49.2619 29.8869V29.888ZM61.4989 18.538C61.0669 18.538 60.6609 18.6469 60.2789 18.8619C59.8959 19.0779 59.5639 19.389 59.2809 19.795C58.9969 20.202 58.7719 20.708 58.6059 21.311C58.4399 21.915 58.3559 22.605 58.3559 23.381C58.3559 24.872 58.6309 25.978 59.1789 26.7C59.7269 27.42 60.4509 27.78 61.3509 27.78C62.3119 27.78 63.0819 27.396 63.6609 26.625C64.2409 25.855 64.5309 24.6689 64.5309 23.0669C64.5309 22.3399 64.4499 21.697 64.2889 21.135C64.1289 20.575 63.9109 20.1 63.6339 19.712C63.3569 19.324 63.0359 19.032 62.6719 18.834C62.3089 18.637 61.9169 18.538 61.4989 18.538V18.538ZM61.3139 29.906C60.5129 29.906 59.7819 29.749 59.1239 29.436C58.4639 29.121 57.9039 28.676 57.4419 28.104C56.9789 27.531 56.6219 26.8439 56.3689 26.0429C56.1159 25.2429 55.9909 24.355 55.9909 23.381C55.9909 22.371 56.1309 21.444 56.4159 20.599C56.6989 19.755 57.0899 19.025 57.5889 18.409C58.0889 17.793 58.6729 17.3119 59.3449 16.9669C60.0169 16.6229 60.7469 16.45 61.5349 16.45C62.2989 16.45 63.0079 16.6159 63.6609 16.9489C64.3149 17.2819 64.8779 17.7439 65.3519 18.3349C65.8269 18.9269 66.1969 19.626 66.4619 20.433C66.7269 21.24 66.8589 22.1179 66.8589 23.0669C66.8589 24.0899 66.7289 25.02 66.4709 25.858C66.2119 26.696 65.8429 27.4139 65.3609 28.0119C64.8809 28.6099 64.2989 29.0739 63.6149 29.4069C62.9309 29.74 62.1639 29.9069 61.3139 29.9069" fill="url(#paint0_linear_2_447)"/>
    <mask id="mask0_2_447" style="mask-type:alpha" maskUnits="userSpaceOnUse" x="0" y="17" width="68" height="68">
        <path d="M0 17.512H67.44V85H0V17.512Z" fill="white"/>
    </mask>
    <g mask="url(#mask0_2_447)">
        <path fill-rule="evenodd" clip-rule="evenodd" d="M3.13002 82.185C4.04702 75.313 7.24602 68.967 12.315 64.081C18.101 58.504 25.703 55.433 33.72 55.433C41.737 55.433 49.339 58.504 55.126 64.081C60.195 68.967 63.394 75.313 64.311 82.185H3.12902H3.13002ZM57.58 62.437C53.914 58.771 49.6 56.065 44.758 54.395L42.328 53.556L44.445 52.098C46.097 50.96 47.532 49.586 48.725 48.041C47.846 47.618 46.998 47.143 46.177 46.63C43.226 50.243 38.737 52.555 33.719 52.555C24.851 52.555 17.636 45.34 17.636 36.472C17.636 27.604 24.851 20.389 33.719 20.389C33.811 20.389 33.901 20.395 33.992 20.396C34.131 19.424 34.318 18.468 34.559 17.533C34.28 17.522 34.002 17.512 33.72 17.512C23.265 17.512 14.76 26.017 14.76 36.472C14.76 42.704 17.838 48.546 22.994 52.098L25.112 53.556L22.682 54.395C17.84 56.065 13.525 58.771 9.85902 62.437C3.81902 68.478 0.319023 76.488 -0.000976562 85H67.441C67.121 76.488 63.621 68.478 57.581 62.437H57.58Z" fill="url(#paint1_linear_2_447)"/>
    </g>
    <mask id="mask1_2_447" style="mask-type:alpha" maskUnits="userSpaceOnUse" x="36" y="0" width="49" height="49">
        <path d="M36.4941 0H84.5331V48.039H36.4941V0Z" fill="white"/>
    </mask>
    <g mask="url(#mask1_2_447)">
        <path fill-rule="evenodd" clip-rule="evenodd" d="M60.5141 0C47.2481 0 36.4941 10.753 36.4941 24.02C36.4941 37.285 47.2481 48.039 60.5141 48.039C73.7791 48.039 84.5341 37.285 84.5341 24.019C84.5341 10.753 73.7781 0 60.5141 0ZM60.5141 2.838C72.1941 2.838 81.6971 12.34 81.6971 24.02C81.6971 35.7 72.1941 45.203 60.5141 45.203C48.8341 45.203 39.3311 35.699 39.3311 24.019C39.3311 12.339 48.8331 2.837 60.5141 2.837" fill="url(#paint2_linear_2_447)"/>
    </g>
    <path fill-rule="evenodd" clip-rule="evenodd" d="M75.7362 25.4H73.1972V27.755H71.4682V25.4H68.9292V23.67H71.4682V21.314H73.1972V23.67H75.7362V25.4Z" fill="url(#paint3_linear_2_447)"/>
    <defs>
        <linearGradient id="paint0_linear_2_447" x1="56.3694" y1="16.45" x2="56.3694" y2="29.9069" gradientUnits="userSpaceOnUse">
            <stop stop-color="#7955A1"/>
            <stop offset="1" stop-color="#F93DBB"/>
        </linearGradient>
        <linearGradient id="paint1_linear_2_447" x1="33.72" y1="17.512" x2="33.72" y2="85" gradientUnits="userSpaceOnUse">
            <stop stop-color="#7955A1"/>
            <stop offset="1" stop-color="#F93DBB"/>
        </linearGradient>
        <linearGradient id="paint2_linear_2_447" x1="60.5141" y1="0" x2="60.5141" y2="48.039" gradientUnits="userSpaceOnUse">
            <stop stop-color="#7955A1"/>
            <stop offset="1" stop-color="#F93DBB"/>
        </linearGradient>
        <linearGradient id="paint3_linear_2_447" x1="72.3327" y1="21.314" x2="72.3327" y2="27.755" gradientUnits="userSpaceOnUse">
            <stop stop-color="#7955A1"/>
            <stop offset="1" stop-color="#F93DBB"/>
        </linearGradient>
    </defs>
</svg>
