<svg width="74" height="85" viewBox="0 0 74 85" fill="none" xmlns="http://www.w3.org/2000/svg">
    <path fill-rule="evenodd" clip-rule="evenodd" d="M35.8469 51.067H11.6209V29.39H24.4219C24.2099 28.488 24.0459 27.567 23.9309 26.63L20.2729 26.635L10.5859 26.636C9.32985 26.638 8.86285 27.106 8.86185 28.364C8.85985 36.262 8.85985 44.161 8.86185 52.059C8.86185 53.302 9.34585 53.787 10.5869 53.787H13.8819C21.5469 53.787 29.2139 53.785 36.8778 53.783C38.1208 53.782 38.6039 53.298 38.6049 52.054V46.82C37.6529 46.375 36.7319 45.873 35.8469 45.319V51.066V51.067Z" fill="url(#paint0_linear_2_460)"/>
    <mask id="mask0_2_460" style="mask-type:alpha" maskUnits="userSpaceOnUse" x="0" y="0" width="74" height="85">
        <path d="M0 85H73.15V0H0V85Z" fill="white"/>
    </mask>
    <g mask="url(#mask0_2_460)">
        <path fill-rule="evenodd" clip-rule="evenodd" d="M18.8961 82.257H28.5701V64.21H18.8961V82.258V82.257ZM44.7561 48.791C44.7551 52.438 44.7521 56.157 44.7481 59.981C44.7411 65.669 40.6041 69.806 34.9121 69.818C34.0491 69.82 33.1861 69.82 32.3051 69.818H31.3791V64.19L31.6391 64.191C32.0671 64.193 32.4941 64.195 32.9211 64.186C33.8141 64.168 34.4231 63.637 34.4361 62.865C34.4421 62.508 34.3131 62.176 34.0721 61.931C33.7991 61.653 33.4001 61.501 32.9481 61.499C26.8041 61.491 20.6631 61.49 14.5201 61.494C14.0651 61.495 13.6641 61.648 13.3901 61.926C13.1511 62.169 13.0221 62.499 13.0261 62.853C13.0371 63.63 13.6441 64.166 14.5361 64.186C14.9461 64.196 15.3551 64.193 15.7921 64.191H16.1071V69.799C15.6241 69.796 15.1341 69.808 14.6481 69.817C12.2001 69.863 9.88613 69.91 7.71513 68.644C4.43813 66.733 2.76413 63.917 2.73813 60.274C2.70313 55.254 2.70813 50.148 2.71413 45.21C2.71713 43.099 2.71913 40.987 2.71813 38.875L2.71513 36.155C2.71313 34.214 2.71013 32.272 2.71713 30.331C2.73713 24.633 6.87413 20.494 12.5551 20.49C16.2811 20.487 20.0091 20.485 23.7371 20.485H23.9091C24.0151 19.565 24.1711 18.662 24.3721 17.775C20.1591 17.772 16.0551 17.783 12.0001 17.808C5.57813 17.848 0.106126 23.248 0.0501264 29.601C-0.0218735 38.21 0.000126448 46.964 0.0231264 55.429L0.0351264 60.593C0.0411264 63.229 0.928126 65.668 2.67213 67.842C5.13913 70.92 8.44213 72.491 12.4871 72.512C13.3851 72.517 14.2821 72.516 15.1961 72.515L16.1441 72.514V75.324L16.1421 83.07C16.1421 84.584 16.5511 84.999 18.0411 85H28.8151C31.1351 85 31.3231 84.812 31.3231 82.492V72.515L31.6511 72.519C32.0821 72.525 32.4911 72.531 32.8991 72.507C33.3991 72.478 33.9041 72.466 34.4091 72.453C35.6351 72.421 36.9021 72.389 38.1121 72.121C43.5691 70.909 47.4051 66.024 47.4411 60.241C47.4631 56.55 47.4621 52.811 47.4581 49.146C46.5431 49.074 45.6411 48.956 44.7561 48.791Z" fill="url(#paint1_linear_2_460)"/>
        <path fill-rule="evenodd" clip-rule="evenodd" d="M23.2362 76.905C23.3792 76.765 23.5612 76.684 23.7362 76.684H23.7452C24.1032 76.689 24.4422 77.021 24.4582 77.381C24.4662 77.56 24.3922 77.746 24.2542 77.893C24.1152 78.041 23.9312 78.129 23.7492 78.133C23.5852 78.136 23.3832 78.06 23.2392 77.92C23.0932 77.778 23.0092 77.593 23.0092 77.413C23.0092 77.233 23.0912 77.049 23.2362 76.905ZM23.7182 80.835H23.7332C24.6352 80.835 25.4892 80.48 26.1402 79.835C26.7932 79.186 27.1552 78.329 27.1592 77.421C27.1622 76.511 26.8052 75.649 26.1542 74.995C25.5052 74.342 24.6512 73.982 23.7472 73.979H23.7372C21.8532 73.979 20.3132 75.509 20.3042 77.394C20.3002 78.3 20.6552 79.159 21.3042 79.814C21.9542 80.468 22.8112 80.831 23.7182 80.834V80.835ZM49.7802 0C36.8732 0 26.4102 10.463 26.4102 23.37C26.4102 36.277 36.8732 46.74 49.7802 46.74C62.6872 46.74 73.1502 36.277 73.1502 23.37C73.1502 10.463 62.6872 0 49.7802 0ZM49.7802 2.76C61.1452 2.76 70.3902 12.006 70.3902 23.37C70.3902 34.734 61.1452 43.98 49.7802 43.98C38.4162 43.98 29.1702 34.734 29.1702 23.37C29.1702 12.006 38.4162 2.76 49.7802 2.76Z" fill="url(#paint2_linear_2_460)"/>
        <path fill-rule="evenodd" clip-rule="evenodd" d="M37.7241 17.624C37.6641 17.771 37.5671 17.924 37.4371 18.082C37.2981 18.249 37.1371 18.411 36.9581 18.559C36.7811 18.709 36.5951 18.837 36.4031 18.942C36.2201 19.044 36.0561 19.112 35.9181 19.146L35.6201 19.22L35.8641 21.607L36.2291 21.551C36.5691 21.5 36.9001 21.396 37.2211 21.243V29.221H39.9581V17.406H37.8141L37.7241 17.624ZM49.0611 23.219C49.0611 24.509 48.8341 25.466 48.3861 26.062C47.9551 26.635 47.3991 26.912 46.6841 26.912C46.0221 26.912 45.5041 26.655 45.0991 26.124C44.6791 25.571 44.4651 24.684 44.4651 23.488C44.4651 22.857 44.5331 22.29 44.6661 21.805C44.7981 21.328 44.9761 20.926 45.1961 20.611C45.4071 20.307 45.6561 20.073 45.9361 19.915C46.2141 19.759 46.4991 19.683 46.8111 19.683C47.1141 19.683 47.3891 19.752 47.6511 19.894C47.9151 20.037 48.1511 20.255 48.3571 20.543C48.5711 20.841 48.7431 21.217 48.8691 21.657C48.9961 22.105 49.0611 22.63 49.0611 23.219ZM50.3951 18.935C49.9581 18.39 49.4301 17.958 48.8281 17.651C47.5941 17.021 46.0341 17.035 44.8011 17.667C44.1831 17.985 43.6381 18.432 43.1801 18.997C42.7271 19.557 42.3681 20.227 42.1121 20.987C41.8581 21.745 41.7281 22.587 41.7281 23.488C41.7281 24.358 41.8441 25.162 42.0701 25.88C42.2991 26.606 42.6301 27.24 43.0531 27.765C43.4811 28.295 44.0071 28.712 44.6191 29.005C45.2311 29.295 45.9151 29.443 46.6521 29.443C47.4331 29.443 48.1501 29.287 48.7821 28.979C49.4141 28.673 49.9591 28.237 50.4021 27.685C50.8421 27.139 51.1831 26.478 51.4171 25.719C51.6491 24.969 51.7671 24.129 51.7671 23.219C51.7671 22.371 51.6451 21.573 51.4071 20.847C51.1671 20.117 50.8271 19.474 50.3951 18.935ZM52.6801 29.221H55.3531V26.453H52.6801V29.221ZM62.7421 22.436C62.0331 21.908 60.9891 21.621 59.5571 21.56L59.7401 20.08H63.1101L63.3911 17.406H57.5921L56.8091 23.952H58.9051C59.4161 23.952 59.8391 23.99 60.1601 24.062C60.4631 24.131 60.7021 24.225 60.8701 24.342C61.0181 24.443 61.1161 24.562 61.1701 24.707C61.2341 24.877 61.2661 25.071 61.2661 25.282C61.2661 25.824 61.1131 26.202 60.7981 26.435C60.4491 26.693 60.0171 26.818 59.4761 26.818C58.5951 26.818 57.8981 26.578 57.3471 26.083L56.9161 25.696L56.2761 28.163L56.2861 28.23C56.3201 28.507 56.5801 28.674 56.7711 28.776C56.9811 28.886 57.2341 28.988 57.5451 29.086C57.8431 29.18 58.1691 29.261 58.5141 29.326C58.8691 29.394 59.2141 29.428 59.5401 29.428C60.1281 29.428 60.6901 29.333 61.2141 29.145C61.7411 28.956 62.2121 28.68 62.6141 28.323C63.0211 27.963 63.3471 27.515 63.5831 26.99C63.8191 26.465 63.9391 25.864 63.9391 25.203C63.9391 23.958 63.5361 23.027 62.7421 22.436Z" fill="url(#paint3_linear_2_460)"/>
    </g>
    <defs>
        <linearGradient id="paint0_linear_2_460" x1="23.7326" y1="26.63" x2="23.7326" y2="53.787" gradientUnits="userSpaceOnUse">
            <stop stop-color="#7955A1"/>
            <stop offset="1" stop-color="#F93DBB"/>
        </linearGradient>
        <linearGradient id="paint1_linear_2_460" x1="23.7307" y1="17.7745" x2="23.7307" y2="85" gradientUnits="userSpaceOnUse">
            <stop stop-color="#7955A1"/>
            <stop offset="1" stop-color="#F93DBB"/>
        </linearGradient>
        <linearGradient id="paint2_linear_2_460" x1="46.7272" y1="0" x2="46.7272" y2="80.835" gradientUnits="userSpaceOnUse">
            <stop stop-color="#7955A1"/>
            <stop offset="1" stop-color="#F93DBB"/>
        </linearGradient>
        <linearGradient id="paint3_linear_2_460" x1="49.7796" y1="17.1857" x2="49.7796" y2="29.443" gradientUnits="userSpaceOnUse">
            <stop stop-color="#7955A1"/>
            <stop offset="1" stop-color="#F93DBB"/>
        </linearGradient>
    </defs>
</svg>
