<svg width="104" height="85" viewBox="0 0 104 85" fill="none" xmlns="http://www.w3.org/2000/svg">
    <mask id="mask0_2_431" style="mask-type:alpha" maskUnits="userSpaceOnUse" x="0" y="23" width="44" height="63">
        <path d="M0 23.1671H43.959V85.0001H0V23.1671Z" fill="white"/>
    </mask>
    <g mask="url(#mask0_2_431)">
        <path fill-rule="evenodd" clip-rule="evenodd" d="M12.527 50.6851V45.5781L15.851 45.5981C16.091 45.5981 19.46 45.1781 23.305 43.7821C25.605 42.9461 27.828 41.8671 29.917 40.5761C30.765 43.0471 32.663 44.6141 35.154 44.8961V50.6861C35.154 56.9231 30.079 61.9991 23.84 61.9991C17.602 61.9991 12.527 56.9231 12.527 50.6851ZM29.302 68.0611L23.657 72.6801L18.25 68.3601C19.371 67.3121 20.081 65.9701 20.312 64.4611C22.379 64.9901 24.657 65.0411 26.749 64.6061C26.763 64.6321 26.777 64.6581 26.792 64.6821C27.366 65.6251 28.382 66.7921 29.536 67.8041C29.446 67.9021 29.4 67.9671 29.302 68.0611ZM7.07801 69.4151C4.22602 71.4981 2.52801 74.8311 2.52801 78.3621V85.0001H5.43401V78.3621C5.43401 73.8611 9.09601 70.1991 13.597 70.1991C14.249 70.1991 14.895 70.1051 15.52 69.9231L22.751 75.6391C22.976 75.8141 23.716 76.4161 23.716 76.4161C23.716 76.4161 24.446 75.8071 24.749 75.5731L31.082 70.3591C31.378 70.0581 31.587 69.8931 31.946 69.5461C32.877 70.0971 33.39 70.1991 34.083 70.1991C36.68 70.1991 39.063 71.3911 40.621 73.4691L40.942 73.8991L42.847 71.5861L42.626 71.3191C40.515 68.7601 37.401 67.2921 34.083 67.2921C32.995 67.2921 30.727 65.1601 29.621 63.6771C34.753 61.3851 38.061 56.3021 38.061 50.6851V50.6051C38.061 43.4211 38.058 43.3781 38.055 43.3561C38.008 42.5921 37.372 41.9951 36.608 41.9951C36.578 41.9951 36.523 41.9991 36.446 42.0071C36.112 42.0391 35.099 42.1391 34.133 41.5581C32.419 40.5281 32.386 38.1911 32.386 38.1691C32.389 37.6221 32.09 37.1261 31.604 36.8731C31.122 36.6201 30.542 36.6571 30.094 36.9741C25.82 40.0001 20.827 41.9811 15.65 42.7051L9.60801 42.7501L9.62101 45.5601V50.6851C9.62101 56.0211 12.706 61.0071 17.487 63.4051V63.4151C17.487 65.5521 15.742 67.2921 13.597 67.2921C12.319 67.2921 11.064 67.5101 9.86701 67.9371L9.38701 67.5551C4.52001 63.6821 0.651015 56.5291 4.16001 51.2641C5.77501 48.8381 6.62901 46.0171 6.62901 43.1041V37.5161C6.62901 31.0721 14.649 26.0731 20.745 26.0731H26.935C33.032 26.0731 41.053 31.0721 41.053 37.5161V43.1031H43.959V37.5171C43.955 33.4101 41.644 29.9941 38.095 27.2781C34.839 24.7871 30.8 23.1671 26.935 23.1671H20.745C16.882 23.1671 12.877 24.6931 9.75701 27.3511C6.46701 30.1581 3.72201 33.7681 3.72201 37.5161V43.1031C3.72201 45.4431 3.03601 47.7071 1.74001 49.6531C-0.814986 53.4901 -0.00598544 57.5291 0.732015 60.2431C1.66401 63.6711 4.26901 67.0061 7.07801 69.4151Z" fill="url(#paint0_linear_2_431)"/>
    </g>
    <path fill-rule="evenodd" clip-rule="evenodd" d="M68.5789 72.07L66.4469 69.2L68.8139 66.656C69.0059 66.811 69.2039 66.959 69.4099 67.092L68.5789 72.071V72.07ZM63.0459 68.315L62.2099 69.212L61.6699 68.611L57.8119 64.338L57.8309 64.346L57.6459 64.14C57.9719 63.46 58.1879 62.739 58.2879 61.988C60.9409 62.698 63.6609 62.677 66.2219 61.978L66.2189 61.98C66.3189 62.731 66.5339 63.452 66.8609 64.132L66.9029 64.177L66.9439 64.312L63.0459 68.315ZM55.9359 71.994L55.0479 67.091C55.3259 66.909 55.5939 66.707 55.8479 66.486L58.1479 69.042L55.9359 71.994ZM53.9199 18.432C51.2199 19.603 48.9879 21.712 47.6459 24.492C46.3559 24.737 44.7609 25.484 43.5279 26.43C41.9079 27.673 41.0199 29.148 41.0289 30.583V43.303C41.0569 44.769 41.8669 46.022 43.3709 46.925C44.5849 47.655 45.9479 47.976 46.9259 48.045C47.2359 53.564 50.4749 58.458 55.4499 60.92V61.008C55.4499 62.169 54.9979 63.26 54.1759 64.078C52.8239 65.427 51.1429 65.358 51.1249 65.356L51.0959 65.555V65.351H50.9749L50.8239 65.352V65.354C44.3839 65.499 39.1909 70.782 39.1909 77.255V85H42.0969V77.255C42.0969 72.293 46.1339 68.255 51.0969 68.255C51.4999 68.255 51.9059 68.221 52.3069 68.155L53.8019 74.94C53.9219 75.48 54.4459 77.648 54.4459 77.648C54.4459 77.648 55.9559 75.996 56.3179 75.58L57.8129 73.859L57.1029 85H60.0589L60.9529 72.158C61.1619 72.388 61.2359 72.465 61.2709 72.495C61.8689 73.02 62.7869 72.964 63.3179 72.365L63.4149 72.254L63.4509 72.213L63.5039 72.152L64.3999 85H67.3559L66.6459 73.859L68.1419 75.58C68.5019 75.996 70.0349 77.629 70.0349 77.629C70.0349 77.629 70.5379 75.479 70.6569 74.94L72.1519 68.154C72.5549 68.221 72.9619 68.256 73.3619 68.256C78.3249 68.256 82.3619 72.293 82.3619 77.255V85H85.2669V77.255C85.2669 74.073 84.0299 71.083 81.7829 68.835C79.5389 66.592 76.5549 65.355 73.3789 65.351L73.3829 65.348H73.3349C73.2019 65.348 73.0699 65.336 72.9379 65.324C72.3449 65.254 71.2609 64.996 70.3319 64.071C69.5099 63.251 69.0649 62.053 69.0649 60.892L69.0329 60.904C69.8529 60.494 70.6449 60.009 71.3989 59.445C74.6569 57.008 76.7589 53.501 77.3719 49.585L74.4919 49.171C73.5349 55.075 68.3999 59.597 62.2299 59.597C55.3799 59.597 49.8059 54.024 49.8059 47.174V37.964C52.4399 37.706 54.4859 36.089 55.4339 33.544L54.1189 29.363C54.0289 29.39 53.9389 29.425 53.8519 29.47C53.3659 29.722 53.0659 30.219 53.0679 30.766C53.0679 30.792 53.0459 33.394 51.1099 34.559C50.0359 35.204 48.9429 35.103 48.5329 35.064C48.4489 35.056 48.3939 35.052 48.3529 35.052C47.6149 35.052 46.9969 35.602 46.9099 36.344C46.8999 36.426 46.8999 36.426 46.8999 39.922L46.9009 45.18C46.4689 45.453 45.8229 45.448 45.2109 45.157C44.5859 44.86 43.9239 44.217 43.9359 43.297V30.571C43.9209 30.111 44.1459 29.636 44.6059 29.162C45.7039 28.027 47.7259 27.304 48.6339 27.304C49.2319 27.304 49.7609 26.945 49.9829 26.39C50.7229 24.54 51.9769 23.015 53.5439 21.955L53.9209 18.431L53.9199 18.432Z" fill="url(#paint1_linear_2_431)"/>
    <mask id="mask1_2_431" style="mask-type:alpha" maskUnits="userSpaceOnUse" x="55" y="0" width="49" height="48">
        <path d="M55.9556 0.00012207H103.03V47.0741H55.9556V0.00012207Z" fill="white"/>
    </mask>
    <g mask="url(#mask1_2_431)">
        <path fill-rule="evenodd" clip-rule="evenodd" d="M79.4926 0.00012207C66.4936 0.00012207 55.9556 10.5381 55.9556 23.5371C55.9556 36.5371 66.4936 47.0741 79.4926 47.0741C92.4926 47.0741 103.03 36.5361 103.03 23.5371C103.03 10.5381 92.4916 0.00012207 79.4926 0.00012207ZM79.4926 2.78012C90.9386 2.78012 100.25 12.0911 100.25 23.5371C100.25 34.9821 90.9386 44.2941 79.4926 44.2941C68.0466 44.2941 58.7356 34.9821 58.7356 23.5371C58.7356 12.0911 68.0466 2.78012 79.4926 2.78012Z" fill="url(#paint2_linear_2_431)"/>
    </g>
    <mask id="mask2_2_431" style="mask-type:alpha" maskUnits="userSpaceOnUse" x="0" y="0" width="104" height="85">
        <path d="M0 85H103.03V0H0V85Z" fill="white"/>
    </mask>
    <g mask="url(#mask2_2_431)">
        <path fill-rule="evenodd" clip-rule="evenodd" d="M3.91797 84.986H83.905V82.288H3.91797V84.986ZM62.219 70.317L57.336 68.136L62.193 73.518L67.462 68.109L62.219 70.317Z" fill="url(#paint3_linear_2_431)"/>
    </g>
    <defs>
        <linearGradient id="paint0_linear_2_431" x1="21.9795" y1="23.1671" x2="21.9795" y2="85.0001" gradientUnits="userSpaceOnUse">
            <stop stop-color="#7955A1"/>
            <stop offset="1" stop-color="#F93DBB"/>
        </linearGradient>
        <linearGradient id="paint1_linear_2_431" x1="62.2289" y1="18.431" x2="62.2289" y2="85" gradientUnits="userSpaceOnUse">
            <stop stop-color="#7955A1"/>
            <stop offset="1" stop-color="#F93DBB"/>
        </linearGradient>
        <linearGradient id="paint2_linear_2_431" x1="79.4926" y1="0.00012207" x2="79.4926" y2="47.0741" gradientUnits="userSpaceOnUse">
            <stop stop-color="#7955A1"/>
            <stop offset="1" stop-color="#F93DBB"/>
        </linearGradient>
        <linearGradient id="paint3_linear_2_431" x1="43.9115" y1="68.109" x2="43.9115" y2="84.986" gradientUnits="userSpaceOnUse">
            <stop stop-color="#7955A1"/>
            <stop offset="1" stop-color="#F93DBB"/>
        </linearGradient>
    </defs>
</svg>
