<svg width="34" height="33" viewBox="0 0 34 33" fill="none" xmlns="http://www.w3.org/2000/svg">
    <g clip-path="url(#clip0_12_136)">
        <path d="M2.69029 2.47557C0.099076 5.1448 0.62941 7.98026 0.62941 16.5943C0.62941 23.7476 -0.629102 30.9187 5.95748 32.6069C8.01424 33.1315 26.2379 33.1315 28.2919 32.6042C31.0343 31.9025 33.2655 29.6965 33.5706 25.85C33.6131 25.3132 33.6131 7.88488 33.5692 7.33713C33.2449 3.23996 30.7018 0.878666 27.3508 0.400412C26.5828 0.290046 26.4289 0.257345 22.4885 0.250532C8.5116 0.257345 5.44775 -0.359889 2.69029 2.47557Z" fill="url(#paint0_linear_12_136)"/>
        <path d="M17.2773 4.77723C12.3051 4.77723 7.58342 4.33884 5.77994 8.92631C5.03499 10.821 5.14318 13.2817 5.14318 16.8051C5.14318 19.8969 5.04321 22.8027 5.77994 24.6825C7.57931 29.2727 12.3393 28.8329 17.2746 28.8329C22.0359 28.8329 26.9452 29.3243 28.7705 24.6825C29.5169 22.7688 29.4073 20.3448 29.4073 16.8051C29.4073 12.1063 29.6689 9.07289 27.3697 6.79545C25.0417 4.48814 21.8935 4.77723 17.2718 4.77723H17.2773ZM16.19 6.94474C26.5617 6.92846 27.8818 5.78566 27.1533 21.6613C26.8945 27.2762 22.5809 26.66 17.2787 26.66C7.61081 26.66 7.33282 26.3858 7.33282 16.7997C7.33282 7.10218 8.09968 6.95017 16.19 6.94203V6.94474ZM23.7545 8.94124C22.9507 8.94124 22.2988 9.58729 22.2988 10.384C22.2988 11.1807 22.9507 11.8267 23.7545 11.8267C24.5583 11.8267 25.2101 11.1807 25.2101 10.384C25.2101 9.58729 24.5583 8.94124 23.7545 8.94124ZM17.2773 10.6283C13.836 10.6283 11.0466 13.3943 11.0466 16.8051C11.0466 20.2158 13.836 22.9805 17.2773 22.9805C20.7186 22.9805 23.5066 20.2158 23.5066 16.8051C23.5066 13.3943 20.7186 10.6283 17.2773 10.6283ZM17.2773 12.7958C22.6247 12.7958 22.6316 20.8144 17.2773 20.8144C11.9312 20.8144 11.923 12.7958 17.2773 12.7958Z" fill="white"/>
    </g>
    <defs>
        <linearGradient id="paint0_linear_12_136" x1="2.75352" y1="30.6333" x2="31.2592" y2="2.3671" gradientUnits="userSpaceOnUse">
            <stop stop-color="#FFDD55"/>
            <stop offset="0.5" stop-color="#FF543E"/>
            <stop offset="1" stop-color="#C837AB"/>
        </linearGradient>
        <clipPath id="clip0_12_136">
            <rect width="34" height="33" fill="white"/>
        </clipPath>
    </defs>
</svg>
