<svg width="34" height="33" viewBox="0 0 34 33" fill="none" xmlns="http://www.w3.org/2000/svg">
    <path d="M30.0778 0H2.99137C1.3393 0 0 1.32847 0 2.96719V29.8345C0 31.4733 1.3393 32.8018 2.99137 32.8018H30.0777C31.7298 32.8018 33.0691 31.4733 33.0691 29.8345V2.96719C33.0691 1.32847 31.7298 0 30.0778 0ZM10.233 28.3232C10.233 28.8001 9.84326 29.1867 9.36246 29.1867H5.65681C5.17601 29.1867 4.78628 28.8001 4.78628 28.3232V12.9149C4.78628 12.438 5.17601 12.0514 5.65681 12.0514H9.36246C9.84326 12.0514 10.233 12.438 10.233 12.9149V28.3232ZM7.50963 10.5989C5.56539 10.5989 3.98924 9.03551 3.98924 7.10699C3.98924 5.17847 5.56539 3.61506 7.50963 3.61506C9.45387 3.61506 11.03 5.17847 11.03 7.10699C11.03 9.03551 9.45396 10.5989 7.50963 10.5989ZM29.5986 28.3928C29.5986 28.8312 29.2402 29.1867 28.7982 29.1867H24.8218C24.3797 29.1867 24.0213 28.8312 24.0213 28.3928V21.1654C24.0213 20.0872 24.3402 16.4408 21.1808 16.4408C18.7301 16.4408 18.233 18.9367 18.1332 20.0567V28.3928C18.1332 28.8312 17.7749 29.1867 17.3328 29.1867H13.4869C13.0449 29.1867 12.6865 28.8312 12.6865 28.3928V12.8453C12.6865 12.4069 13.0449 12.0514 13.4869 12.0514H17.3328C17.7748 12.0514 18.1332 12.4069 18.1332 12.8453V14.1896C19.0419 12.8369 20.3924 11.7928 23.2678 11.7928C29.635 11.7928 29.5986 17.6934 29.5986 20.9354V28.3928Z" fill="#0077B7"/>
</svg>
