<svg width="41" height="33" viewBox="0 0 41 33" fill="none" xmlns="http://www.w3.org/2000/svg">
    <path d="M41.0003 3.88322C39.4867 4.54178 37.874 4.9783 36.1925 5.19025C37.9223 4.16582 39.2425 2.55601 39.8632 0.615664C38.2504 1.56944 36.4698 2.24314 34.5721 2.61909C33.0408 1.00172 30.8582 0 28.4772 0C23.8577 0 20.1387 3.71922 20.1387 8.27866C20.1387 8.9347 20.1947 9.5655 20.3321 10.166C13.3952 9.83044 7.25704 6.5326 3.13357 1.50888C2.41368 2.74778 1.99142 4.16582 1.99142 5.69237C1.99142 8.55874 3.47953 11.0996 5.6977 12.5706C4.35713 12.5454 3.042 12.1594 1.92782 11.5513C1.92782 11.5765 1.92782 11.6093 1.92782 11.6421C1.92782 15.6641 4.8201 19.0048 8.61287 19.7744C7.93369 19.9586 7.19345 20.0469 6.42522 20.0469C5.89103 20.0469 5.35175 20.0166 4.84554 19.9056C5.92664 23.1833 8.99444 25.5929 12.6422 25.6712C9.80336 27.8739 6.19883 29.2011 2.29667 29.2011C1.61239 29.2011 0.9561 29.1709 0.299805 29.0876C3.99592 31.4518 8.3763 32.8018 13.1001 32.8018C28.4543 32.8018 36.8488 20.1857 36.8488 9.2501C36.8488 8.88423 36.8361 8.53098 36.8183 8.18026C38.4743 7.01453 39.8657 5.55864 41.0003 3.88322Z" fill="#03A9F4"/>
</svg>
