<svg width="105" height="99" viewBox="0 0 105 99" fill="none" xmlns="http://www.w3.org/2000/svg">
    <path d="M104.004 30.1363L104.123 30.2737C104.726 31.1097 104.604 32.2867 103.808 32.978L103.807 32.9786C98.5685 37.5432 92.8104 38.9965 87.582 38.9965C82.9029 38.9965 78.6543 37.8351 75.5843 36.6806L74.7757 36.3766L74.9149 37.2292C76.0687 44.2968 76.3338 56.8675 66.4155 65.488C60.8483 70.3256 54.5003 71.8155 48.7828 71.8155C44.3103 71.8155 40.2347 70.9067 37.2437 69.9763L36.4179 69.7194L36.6073 70.5632C38.1349 77.369 38.9323 89.3795 29.0299 97.9916L29.0277 97.9935C28.6513 98.3247 28.1776 98.4874 27.7046 98.4874C27.1376 98.4874 26.5766 98.2498 26.1763 97.7886L26.1753 97.7875C25.4419 96.9479 25.528 95.6677 26.3727 94.9343L26.3729 94.9341C28.9459 92.6971 30.6493 90.1589 31.7498 87.5498L31.8874 87.2237L31.6255 86.9856C31.5651 86.9307 31.5344 86.9057 31.5135 86.8886C31.4926 86.8717 31.4815 86.8626 31.4606 86.8399L12.5952 65.1272L12.5953 65.1271L12.5877 65.1188C12.5715 65.1009 12.5652 65.0906 12.5488 65.064C12.5352 65.042 12.5148 65.0087 12.476 64.9505L12.2776 64.653L11.932 64.7445C9.19368 65.4696 6.4353 66.8041 3.86174 69.0481L3.86139 69.0484C3.02187 69.7818 1.74193 69.6957 1.00857 68.851L1.0076 68.8499C0.274252 68.0103 0.360323 66.7302 1.20496 65.9967L1.2055 65.9963C11.1014 57.3783 22.8915 59.8396 29.4215 62.3003L30.2314 62.6054L30.0912 61.7514C28.9312 54.684 28.6599 42.1137 38.5966 33.4934C48.5277 24.8787 60.9343 26.8853 67.7689 29.0111L68.5946 29.2679L68.4052 28.4241C66.8776 21.6183 66.0801 9.6078 75.9826 0.995771L75.9834 0.995048C76.8229 0.261673 78.1029 0.347734 78.8362 1.19243L78.8372 1.19355C79.5705 2.03317 79.4845 3.31328 78.6398 4.04671L78.6396 4.04691C76.0665 6.28398 74.3632 8.8221 73.2626 11.4312L73.1251 11.7573L73.387 11.9954C73.4184 12.0241 73.443 12.0458 73.4633 12.0638C73.5022 12.0982 73.5256 12.1189 73.552 12.1476L92.4117 33.8538C92.4361 33.8842 92.4571 33.9163 92.4898 33.9661C92.5031 33.9863 92.5183 34.0096 92.5365 34.0368L92.7348 34.3343L93.0805 34.2428C95.8188 33.5177 98.5772 32.1832 101.151 29.9393L101.151 29.9389C101.991 29.2056 103.271 29.2916 104.004 30.1363ZM86.8752 34.9409L88.0093 34.9695L87.2652 34.1131L72.5798 17.2113L71.8365 16.3558L71.7058 17.4816C70.9987 23.5689 72.6421 29.0874 73.3588 31.1291L73.4246 31.3165L73.6011 31.4077C75.5215 32.4 80.7568 34.7867 86.8752 34.9409ZM18.1247 64.059L16.9906 64.0304L17.7346 64.8868L32.42 81.7887L33.1633 82.6442L33.2941 81.5184C34.0011 75.4311 32.3578 69.9125 31.641 67.8708L31.5752 67.6834L31.3988 67.5922C29.4784 66.6 24.2431 64.2133 18.1247 64.059ZM34.8186 64.57L34.8809 64.8117L35.1116 64.9072C37.12 65.7388 41.9465 67.4724 47.5702 67.6966L48.7266 67.7427L47.9675 66.8691L34.6579 51.5514L33.8988 50.6778L33.783 51.8293C33.2193 57.4349 34.2753 62.4604 34.8186 64.57ZM53.492 67.0517L53.6831 67.2715L53.9686 67.2137C56.5807 66.6848 59.2118 65.6901 61.6895 64.0274L62.1598 63.7118L61.7883 63.2842L40.142 38.3733L39.7708 37.946L39.3926 38.3672C37.4003 40.586 36.0435 43.0493 35.1533 45.5653L35.0561 45.8401L35.2473 46.0601L53.492 67.0517ZM43.2053 35.722L64.7226 60.4856V61.6071L65.5941 60.6397C67.5938 58.4198 68.9441 55.9496 69.8339 53.4346L69.9311 53.1599L69.7399 52.9399L51.5016 31.9546L51.3105 31.7347L51.0249 31.7925C48.4128 32.3214 45.7818 33.3162 43.3041 34.9789L42.8338 35.2945L43.2053 35.722ZM70.3231 47.436L71.2004 48.4454V47.1266C71.7585 41.5377 70.7112 36.5305 70.1686 34.4237L70.1061 34.1811L69.8744 34.0859C67.8678 33.2614 63.0473 31.5211 57.4165 31.3033L56.2616 31.2586L57.0198 32.1309L70.3231 47.436Z" fill="url(#paint0_linear_2_510)" stroke="white"/>
    <defs>
        <linearGradient id="paint0_linear_2_510" x1="22.5" y1="21.5001" x2="69" y2="99.0001" gradientUnits="userSpaceOnUse">
            <stop stop-color="#7955A1"/>
            <stop offset="1" stop-color="#F93DBB"/>
        </linearGradient>
    </defs>
</svg>
