<svg width="88" height="85" viewBox="0 0 88 85" fill="none" xmlns="http://www.w3.org/2000/svg">
    <path fill-rule="evenodd" clip-rule="evenodd" d="M1.785 56.431C0.803 56.431 0 57.235 0 58.216C0 59.199 0.803 60.002 1.785 60.002C2.768 60.002 3.571 59.199 3.571 58.216C3.571 57.235 2.767 56.431 1.785 56.431ZM1.785 42.146C0.803 42.146 0 42.95 0 43.932C0 44.914 0.803 45.718 1.785 45.718C2.768 45.718 3.571 44.914 3.571 43.932C3.571 42.95 2.767 42.146 1.785 42.146ZM26.783 81.429C25.801 81.429 24.998 82.232 24.998 83.214C24.998 84.196 25.801 85 26.783 85C27.765 85 28.569 84.196 28.569 83.214C28.569 82.232 27.765 81.429 26.783 81.429ZM12.499 26.076C10.535 26.076 8.927 27.683 8.927 29.648C8.927 31.611 10.535 33.218 12.499 33.218C14.463 33.218 16.07 31.612 16.07 29.648C16.07 27.683 14.463 26.076 12.499 26.076ZM12.499 40.361C10.535 40.361 8.927 41.968 8.927 43.932C8.927 45.896 10.535 47.503 12.499 47.503C14.463 47.503 16.07 45.896 16.07 43.933C16.07 41.968 14.463 40.361 12.499 40.361ZM12.499 54.645C10.535 54.645 8.927 56.252 8.927 58.217C8.927 60.18 10.535 61.787 12.499 61.787C14.463 61.787 16.07 60.181 16.07 58.217C16.07 56.252 14.463 54.645 12.499 54.645ZM26.783 33.219C28.747 33.219 30.354 31.612 30.354 29.648C30.354 27.684 28.747 26.077 26.784 26.077C24.819 26.077 23.212 27.684 23.212 29.647C23.212 31.612 24.819 33.219 26.783 33.219ZM26.783 20.72C27.765 20.72 28.569 19.916 28.569 18.934C28.569 17.952 27.765 17.148 26.783 17.148C25.801 17.148 24.998 17.952 24.998 18.934C24.998 19.916 25.801 20.72 26.783 20.72ZM12.499 68.93C10.535 68.93 8.927 70.537 8.927 72.501C8.927 74.465 10.535 76.071 12.499 76.071C14.463 76.071 16.07 74.465 16.07 72.501C16.07 70.537 14.463 68.93 12.499 68.93ZM55.352 54.645C53.388 54.645 51.781 56.252 51.781 58.217C51.781 60.18 53.388 61.787 55.352 61.787C57.316 61.787 58.923 60.18 58.923 58.217C58.923 56.252 57.316 54.645 55.353 54.645H55.352ZM55.352 68.93C53.388 68.93 51.781 70.537 51.781 72.501C51.781 74.465 53.388 76.071 55.352 76.071C57.316 76.071 58.923 74.465 58.923 72.501C58.923 70.537 57.316 68.93 55.353 68.93H55.352ZM66.066 56.431C65.083 56.431 64.28 57.235 64.28 58.216C64.28 59.199 65.083 60.002 66.066 60.002C67.048 60.002 67.851 59.199 67.851 58.216C67.851 57.235 67.047 56.431 66.066 56.431ZM26.783 52.86C23.819 52.86 21.426 55.252 21.426 58.217C21.426 61.181 23.819 63.573 26.783 63.573C29.747 63.573 32.14 61.181 32.14 58.217C32.14 55.252 29.747 52.86 26.783 52.86ZM26.783 68.93C24.819 68.93 23.212 70.537 23.212 72.501C23.212 74.465 24.819 76.071 26.783 76.071C28.747 76.071 30.354 74.465 30.354 72.501C30.354 70.537 28.747 68.93 26.784 68.93H26.783ZM26.783 38.575C23.819 38.575 21.426 40.968 21.426 43.932C21.426 46.896 23.819 49.289 26.783 49.289C29.747 49.289 32.14 46.896 32.14 43.932C32.14 40.968 29.747 38.575 26.783 38.575ZM41.068 68.93C39.104 68.93 37.496 70.537 37.496 72.501C37.496 74.465 39.104 76.071 41.068 76.071C43.032 76.071 44.638 74.465 44.638 72.501C44.638 70.537 43.032 68.93 41.068 68.93ZM41.068 81.429C40.085 81.429 39.282 82.232 39.282 83.214C39.282 84.196 40.085 85 41.068 85C42.05 85 42.853 84.196 42.853 83.214C42.853 82.232 42.05 81.429 41.068 81.429ZM41.068 52.86C38.103 52.86 35.711 55.252 35.711 58.217C35.711 61.181 38.103 63.573 41.068 63.573C44.032 63.573 46.424 61.181 46.424 58.217C46.424 55.252 44.032 52.86 41.068 52.86ZM40.966 38.58C38.05 38.635 35.711 41.002 35.711 43.932C35.711 46.896 38.104 49.289 41.067 49.289C43.794 49.289 46.032 47.263 46.373 44.632C44.275 42.908 42.451 40.864 40.966 38.581" fill="url(#paint0_linear_2_396)"/>
    <path fill-rule="evenodd" clip-rule="evenodd" d="M63.1649 0C49.9019 0 39.1499 10.752 39.1499 24.015C39.1499 37.278 49.9019 48.03 63.1649 48.03C76.4279 48.03 87.1789 37.278 87.1789 24.015C87.1789 10.752 76.4279 0 63.1649 0ZM63.1649 2.836C74.8429 2.836 84.3429 12.337 84.3429 24.016C84.3429 35.693 74.8429 45.194 63.1649 45.194C51.4869 45.194 41.9849 35.693 41.9849 24.015C41.9849 12.337 51.4869 2.836 63.1649 2.836Z" fill="url(#paint1_linear_2_396)"/>
    <defs>
        <linearGradient id="paint0_linear_2_396" x1="33.9255" y1="17.148" x2="33.9255" y2="85" gradientUnits="userSpaceOnUse">
            <stop stop-color="#7955A1"/>
            <stop offset="1" stop-color="#F93DBB"/>
        </linearGradient>
        <linearGradient id="paint1_linear_2_396" x1="63.1644" y1="0" x2="63.1644" y2="48.03" gradientUnits="userSpaceOnUse">
            <stop stop-color="#7955A1"/>
            <stop offset="1" stop-color="#F93DBB"/>
        </linearGradient>
    </defs>
</svg>
