<svg width="88" height="85" viewBox="0 0 88 85" fill="none" xmlns="http://www.w3.org/2000/svg">
    <path fill-rule="evenodd" clip-rule="evenodd" d="M12.778 26.5915L7.414 22.6895L5.841 24.8505L11.205 28.7535L12.778 26.5915ZM0 50.8235H6.457V48.1495H0V50.8235Z" fill="#F93DBB"/>
    <mask id="mask0_6_31" style="mask-type:alpha" maskUnits="userSpaceOnUse" x="9" y="17" width="54" height="68">
        <path d="M9.97852 17.0352H62.6705V85.0002H9.97852V17.0352Z" fill="white"/>
    </mask>
    <g mask="url(#mask0_6_31)">
        <path fill-rule="evenodd" clip-rule="evenodd" d="M59.7985 50.2362C57.5355 58.3812 51.0635 64.8982 42.5325 67.0242L42.3985 67.0572V82.1572H31.1005V67.0572L30.9675 67.0242C20.2835 64.3622 12.8215 54.8142 12.8215 43.8062C12.8215 30.6122 23.5555 19.8782 36.7495 19.8782C36.8295 19.8782 36.9095 19.8832 36.9905 19.8842C37.1475 18.9232 37.3605 17.9802 37.6185 17.0572C37.3285 17.0472 37.0415 17.0352 36.7485 17.0352C21.9885 17.0352 9.97852 29.0452 9.97852 43.8052C9.97852 55.3022 17.5215 65.5662 28.2585 69.1822V85.0012H45.2405V69.1812C53.8605 66.2792 60.4175 59.0912 62.6705 50.4192C61.6995 50.4112 60.7415 50.3472 59.7985 50.2362Z" fill="#F93DBB"/>
    </g>
    <mask id="mask1_6_31" style="mask-type:alpha" maskUnits="userSpaceOnUse" x="39" y="0" width="49" height="49">
        <path d="M39.418 0H87.335V48.314H39.418V0Z" fill="white"/>
    </mask>
    <g mask="url(#mask1_6_31)">
        <path fill-rule="evenodd" clip-rule="evenodd" d="M63.176 0C61.657 0 60.138 0.144 58.629 0.432C57.935 0.564 57.387 1.097 57.234 1.789L56.857 3.519L56.69 3.572C55.479 3.952 54.291 4.447 53.16 5.041L53.013 5.118L51.405 4.171C51.129 4.008 50.819 3.928 50.509 3.928C50.159 3.928 49.809 4.031 49.509 4.236C48.295 5.07 47.146 6.026 46.095 7.077C45.044 8.129 44.088 9.277 43.254 10.491C42.868 11.054 42.842 11.798 43.188 12.388L44.135 13.995L44.057 14.143C43.465 15.272 42.97 16.459 42.589 17.671L42.537 17.838L40.807 18.218C39.989 18.397 39.418 19.106 39.418 19.943V28.373C39.418 29.211 39.988 29.921 40.807 30.099L42.537 30.478L42.589 30.644C42.97 31.858 43.465 33.045 44.057 34.174L44.135 34.322L43.188 35.93C42.842 36.519 42.868 37.263 43.254 37.825C44.087 39.039 45.042 40.188 46.094 41.24C47.147 42.293 48.296 43.249 49.509 44.08C49.809 44.286 50.159 44.39 50.509 44.39C50.819 44.39 51.129 44.308 51.405 44.146L53.012 43.199L53.16 43.277C54.29 43.869 55.477 44.364 56.69 44.745L56.857 44.798L57.234 46.528C57.387 47.219 57.934 47.752 58.629 47.885C60.129 48.171 61.653 48.315 63.176 48.315C64.7 48.315 66.224 48.171 67.723 47.885C68.418 47.752 68.966 47.219 69.118 46.528L69.496 44.798L69.662 44.745C70.876 44.363 72.063 43.869 73.192 43.277L73.34 43.199L74.947 44.146C75.223 44.309 75.533 44.39 75.842 44.39C76.194 44.39 76.544 44.286 76.844 44.08C78.055 43.248 79.204 42.292 80.257 41.24C81.309 40.186 82.265 39.038 83.098 37.825C83.485 37.261 83.51 36.518 83.164 35.93L82.216 34.322L82.294 34.174C82.884 33.05 83.379 31.864 83.763 30.644L83.815 30.478L85.546 30.099C86.237 29.949 86.77 29.401 86.902 28.705C87.479 25.689 87.479 22.629 86.902 19.611C86.77 18.916 86.238 18.369 85.546 18.218L83.815 17.838L83.763 17.671C83.379 16.454 82.884 15.267 82.294 14.143L82.216 13.995L83.164 12.387C83.51 11.799 83.484 11.055 83.098 10.491C82.264 9.276 81.308 8.127 80.257 7.077C79.206 6.027 78.057 5.07 76.844 4.237C76.544 4.031 76.194 3.928 75.844 3.928C75.534 3.928 75.224 4.008 74.947 4.171L73.34 5.118L73.192 5.041C72.062 4.448 70.876 3.953 69.662 3.572L69.496 3.519L69.118 1.789C68.966 1.097 68.418 0.564 67.723 0.432C66.215 0.144 64.695 0 63.176 0ZM63.176 2.674C64.327 2.674 65.488 2.768 66.636 2.955L66.884 4.091L67.215 5.605L68.694 6.07L68.861 6.123C69.92 6.456 70.959 6.888 71.944 7.405L72.092 7.483L73.412 8.18L74.697 7.422L75.799 6.772C76.706 7.432 77.568 8.169 78.367 8.969C79.166 9.768 79.903 10.629 80.562 11.535L79.912 12.638L79.155 13.923L79.852 15.243L79.927 15.387C80.445 16.372 80.877 17.411 81.212 18.474L81.264 18.64L81.729 20.118L83.242 20.45L84.38 20.7C84.754 22.997 84.754 25.318 84.38 27.618L83.245 27.865L81.73 28.195L81.264 29.675L81.212 29.84C80.877 30.906 80.444 31.946 79.929 32.926L79.852 33.074L79.155 34.394L79.912 35.68L80.562 36.782C79.902 37.688 79.165 38.549 78.366 39.349C77.566 40.149 76.706 40.885 75.799 41.545L74.697 40.895L73.411 40.137L72.091 40.834L71.948 40.909C70.962 41.428 69.923 41.86 68.86 42.194L68.694 42.247L67.215 42.712L66.884 44.226L66.635 45.362C65.495 45.547 64.334 45.641 63.176 45.641C62.019 45.641 60.858 45.547 59.717 45.362L59.469 44.227L59.138 42.712L57.659 42.247L57.492 42.194C56.432 41.861 55.392 41.429 54.408 40.912L54.26 40.834L52.94 40.137L51.654 40.896L50.552 41.545C49.647 40.886 48.785 40.149 47.985 39.349C47.186 38.55 46.45 37.689 45.79 36.781L46.44 35.68L47.196 34.395L46.501 33.075L46.424 32.931C45.906 31.943 45.473 30.903 45.139 29.841L45.087 29.675L44.622 28.195L43.107 27.865L42.092 27.643V20.673L43.111 20.449L44.621 20.117L45.086 18.642L45.139 18.475C45.473 17.414 45.906 16.375 46.422 15.39L46.501 15.242L47.196 13.922L46.439 12.637L45.789 11.537C46.45 10.629 47.187 9.767 47.987 8.967C48.785 8.168 49.647 7.431 50.552 6.772L51.656 7.422L52.941 8.18L54.261 7.483L54.404 7.408C55.394 6.888 56.433 6.456 57.492 6.123L57.659 6.07L59.139 5.605L59.469 4.09L59.716 2.955C60.864 2.768 62.025 2.674 63.176 2.674Z" fill="#F93DBB"/>
    </g>
    <path fill-rule="evenodd" clip-rule="evenodd" d="M63.3765 15.4258C58.5615 15.4258 54.6455 19.3428 54.6455 24.1568C54.6455 28.9718 58.5615 32.8888 63.3755 32.8888C68.1905 32.8888 72.1075 28.9718 72.1075 24.1568C72.1075 19.3428 68.1905 15.4258 63.3765 15.4258ZM63.3765 35.5958C57.0685 35.5958 51.9365 30.4648 51.9365 24.1568C51.9365 17.8498 57.0685 12.7178 63.3765 12.7178C69.6835 12.7178 74.8155 17.8498 74.8155 24.1578C74.8155 30.4648 69.6835 35.5958 63.3755 35.5958" fill="#F93DBB"/>
</svg>
