<svg width="82" height="85" viewBox="0 0 82 85" fill="none" xmlns="http://www.w3.org/2000/svg">
    <path fill-rule="evenodd" clip-rule="evenodd" d="M45.6872 50.8824C45.6872 57.2624 40.4972 62.4514 34.1182 62.4514C27.7382 62.4514 22.5492 57.2614 22.5492 50.8814C22.5492 44.5034 27.7392 39.3134 34.1192 39.3134C34.8732 39.3134 35.6102 39.3884 36.3252 39.5274C35.5782 38.4984 34.9042 37.4144 34.3092 36.2814C34.2452 36.2814 34.1822 36.2764 34.1192 36.2764C26.0652 36.2764 19.5132 42.8284 19.5132 50.8824C19.5132 58.9354 26.0652 65.4874 34.1182 65.4874C42.1722 65.4874 48.7242 58.9354 48.7242 50.8824C48.7242 50.1754 48.6702 49.4814 48.5732 48.8004C47.3692 48.3584 46.2062 47.8324 45.0922 47.2264C45.4762 48.3764 45.6872 49.6054 45.6872 50.8824Z" fill="#F93DBB"/>
    <path fill-rule="evenodd" clip-rule="evenodd" d="M57.65 50.4062C56.961 50.4062 56.281 50.3712 55.606 50.3192C55.611 50.5072 55.62 50.6932 55.62 50.8822C55.62 62.7382 45.975 72.3842 34.118 72.3842C22.262 72.3842 12.616 62.7382 12.616 50.8822C12.616 39.7862 21.065 30.6282 31.866 29.4982C31.678 28.6032 31.533 27.6922 31.438 26.7662C29.688 26.9582 27.977 27.3242 26.341 27.8782L26.133 27.9482L22.355 18.8252L19.766 19.8982L23.549 29.0292L23.352 29.1272C21.468 30.0642 19.715 31.2372 18.14 32.6152L17.975 32.7612L10.98 25.7682L9 27.7482L15.994 34.7412L15.849 34.9072C14.471 36.4812 13.297 38.2352 12.36 40.1192L12.263 40.3162L3.133 36.5332L2.059 39.1222L11.182 42.9022L11.112 43.1102C10.446 45.0732 10.036 47.1442 9.895 49.2642L9.88 49.4842H0V52.2862H9.883L9.898 52.5062C10.039 54.6272 10.449 56.6972 11.115 58.6602L11.185 58.8692L2.062 62.6492L3.136 65.2372L12.266 61.4542L12.364 61.6512C13.3 63.5352 14.474 65.2892 15.852 66.8642L15.997 67.0292L9.004 74.0212L10.984 76.0012L17.978 69.0092L18.143 69.1552C19.718 70.5332 21.472 71.7072 23.356 72.6432L23.552 72.7402L19.77 81.8702L22.356 82.9402L26.136 73.8172L26.345 73.8872C28.309 74.5532 30.379 74.9622 32.5 75.1032L32.72 75.1182V85.0002H35.52V75.1172L35.74 75.1022C37.861 74.9612 39.932 74.5512 41.895 73.8852L42.104 73.8152L45.883 82.9382L48.472 81.8642L44.689 72.7342L44.885 72.6362C46.769 71.7002 48.523 70.5262 50.098 69.1482L50.263 69.0032L57.256 75.9962L59.236 74.0162L52.244 67.0222L52.389 66.8572C53.768 65.2822 54.941 63.5282 55.877 61.6442L55.975 61.4482L65.105 65.2302L66.179 62.6422L57.056 58.8622L57.126 58.6542C57.793 56.6892 58.202 54.6182 58.343 52.4992L58.358 52.2792H68.237V49.4782H64.582C62.372 50.0792 60.05 50.4062 57.65 50.4062Z" fill="#F93DBB"/>
    <mask id="mask0_6_46" style="mask-type:alpha" maskUnits="userSpaceOnUse" x="34" y="0" width="48" height="48">
        <path d="M34.0615 0H81.8705V47.809H34.0615V0Z" fill="white"/>
    </mask>
    <g mask="url(#mask0_6_46)">
        <path fill-rule="evenodd" clip-rule="evenodd" d="M57.9655 0C44.7635 0 34.0615 10.702 34.0615 23.905C34.0615 37.107 44.7635 47.809 57.9655 47.809C71.1675 47.809 81.8715 37.107 81.8715 23.905C81.8705 10.702 71.1675 0 57.9655 0ZM57.9655 2.823C69.5895 2.823 79.0475 12.28 79.0475 23.905C79.0475 35.528 69.5895 44.985 57.9655 44.985C46.3415 44.985 36.8855 35.528 36.8855 23.905C36.8855 12.28 46.3415 2.823 57.9655 2.823Z" fill="#F93DBB"/>
    </g>
</svg>
