<svg width="86" height="85" viewBox="0 0 86 85" fill="none" xmlns="http://www.w3.org/2000/svg">
    <mask id="mask0_6_56" style="mask-type:alpha" maskUnits="userSpaceOnUse" x="0" y="16" width="62" height="69">
        <path d="M0 16.9062H61.856V85.0003H0V16.9062Z" fill="white"/>
    </mask>
    <g mask="url(#mask0_6_56)">
        <path fill-rule="evenodd" clip-rule="evenodd" d="M29.68 78.3964C28.159 81.1794 26.447 82.6154 24.667 82.6494H24.615C21.555 82.6494 18.512 78.5864 17.596 77.0134C17.423 76.7194 17.112 76.4944 16.766 76.4434C15.227 76.1834 14.138 75.5604 13.55 74.6104C12.46 72.8124 13.274 70.2884 13.274 70.2704C13.464 69.6834 13.187 69.0604 12.617 68.8184C7.80998 66.7614 7.37798 62.2664 7.53398 59.7764C8.67398 60.4164 9.79898 60.7794 10.871 60.8664C11.061 60.8834 11.251 60.9004 11.423 60.9004C12.012 60.9004 12.599 60.8144 13.17 60.6584L12.478 58.3764C12.15 58.4804 11.804 58.5144 11.458 58.5144C10.196 58.5314 8.81298 57.9614 7.30898 56.8204C7.29198 56.8034 7.27398 56.8034 7.27398 56.7864L7.25698 56.7684C-1.54302 50.9084 4.04098 42.2284 4.28298 41.8664C4.42198 41.6414 4.49098 41.3814 4.47398 41.1224C4.09398 35.7454 5.02698 31.7864 7.25698 29.3484C9.10698 27.3264 11.303 27.0154 11.942 26.9634C17.405 28.8994 13.811 32.8234 13.828 33.0314C13.828 33.6894 14.364 34.2074 15.003 34.2074C15.66 34.2074 16.179 33.6714 16.179 33.0314C16.179 32.7904 19.843 27.8104 13.723 25.1314C15.193 22.5214 17.233 22.3814 18.08 22.4514C18.927 23.5574 19.947 24.8714 20.915 25.8404C21.14 26.0654 21.452 26.1854 21.745 26.1854C22.039 26.1854 22.35 26.0654 22.575 25.8404C23.042 25.3734 23.042 24.6304 22.575 24.1624C21.883 23.4544 21.451 22.9864 20.31 21.4824C24.857 17.5404 28.522 19.8224 29.68 20.7734V78.3964ZM61.856 48.9644L60.804 50.0114C60.746 50.0684 60.684 50.1244 60.593 50.2034L59.837 50.8704L59.307 50.4044C58.837 52.5214 57.538 54.7344 54.714 56.6644C54.627 56.6994 54.541 56.7514 54.454 56.8204C52.536 58.2904 50.79 58.8084 49.285 58.3764L48.611 60.6404C49.181 60.8144 49.77 60.8834 50.357 60.8834C51.637 60.8834 52.951 60.5034 54.299 59.7424C54.472 62.2144 54.057 66.7444 49.234 68.8014C48.68 69.0434 48.386 69.6834 48.577 70.2534C48.577 70.2704 49.389 72.8124 48.3 74.5934C47.712 75.5604 46.64 76.1664 45.084 76.4254C44.738 76.4774 44.445 76.6854 44.254 76.9954C43.338 78.5694 40.278 82.6324 37.235 82.6324H37.183C35.386 82.5974 33.674 81.1454 32.083 78.3094V20.8264L32.2 20.7324C31.95 19.9364 31.762 19.1214 31.636 18.2914C31.366 18.4514 31.127 18.6094 30.926 18.7524C29.023 17.3864 24.027 14.8104 18.374 20.0834C16.42 19.8934 13.222 20.6714 11.354 24.6474C10.127 24.8204 7.68998 25.4604 5.61498 27.6904C2.95198 30.5604 1.77698 35.0034 2.13998 40.8984C1.63898 41.7464 0.462981 44.0094 0.0999814 46.8464C-0.298019 50.0614 0.307981 54.5914 5.33798 58.2734C4.75098 61.7134 5.30398 67.6264 10.802 70.5304C10.577 71.7764 10.422 73.9544 11.545 75.8044C12.426 77.2564 13.879 78.2244 15.867 78.6574C16.869 80.2124 20.327 85.0014 24.649 85.0014H24.736C27.053 84.9674 29.145 83.6014 30.96 80.9384C32.792 83.6014 34.884 84.9844 37.183 85.0014H37.27C41.592 85.0014 45.05 80.2124 46.052 78.6574C48.04 78.2244 49.493 77.2564 50.374 75.8044C51.498 73.9544 51.343 71.7764 51.118 70.5304C56.598 67.6264 57.152 61.6964 56.581 58.2734C60.494 55.3974 61.753 52.0074 61.856 48.9654V48.9644Z" fill="#F93DBB"/>
    </g>
    <mask id="mask1_6_56" style="mask-type:alpha" maskUnits="userSpaceOnUse" x="33" y="0" width="53" height="49">
        <path d="M33.5771 0H85.9931V48.114H33.5771V0Z" fill="white"/>
    </mask>
    <g mask="url(#mask1_6_56)">
        <path fill-rule="evenodd" clip-rule="evenodd" d="M48.9911 2.77824C46.5361 2.77824 44.0851 3.46624 42.0111 4.86323C38.8131 7.01723 36.7571 10.4712 36.3711 14.3402C35.9861 18.1922 37.3111 21.9662 40.0041 24.6932C44.7301 29.4802 49.5461 34.3072 54.2041 38.9762C55.8491 40.6252 57.4961 42.2752 59.1401 43.9262C59.3261 44.1102 59.5331 44.2882 59.7531 44.4742L65.2581 38.9942L65.3021 38.9502C69.9061 34.3702 74.6661 29.6342 79.3261 24.9562C82.5771 21.6902 83.8211 17.7702 83.0241 13.3002C82.1871 8.60024 79.4281 5.25423 75.0471 3.62023C70.5771 1.95423 66.2121 2.67323 62.4241 5.70023C60.4641 7.26823 59.0401 7.26723 57.1751 5.70023C54.8711 3.76424 51.9291 2.77724 48.9911 2.77724V2.77824ZM59.7691 48.1142L58.3251 46.8442C58.2201 46.7522 58.1151 46.6632 58.0121 46.5752C57.7581 46.3602 57.4781 46.1232 57.2081 45.8522C55.5631 44.2002 53.9181 42.5522 52.2721 40.9032C47.6121 36.2332 42.7941 31.4032 38.0621 26.6102C34.7971 23.3042 33.1901 18.7322 33.6571 14.0702C34.1241 9.39024 36.6141 5.21023 40.4871 2.60023C46.0331 -1.13277 53.7901 -0.707765 58.9321 3.61224C59.7791 4.32523 59.7791 4.32423 60.7221 3.57224C65.2991 -0.087765 70.5821 -0.955765 76.0011 1.06624C81.3371 3.05524 84.6951 7.12124 85.7111 12.8232C86.6741 18.2202 85.1771 22.9502 81.2611 26.8822C76.5961 31.5652 71.8341 36.3032 67.2281 40.8862L67.1831 40.9302C65.3131 42.7902 63.4431 44.6502 61.5761 46.5112C61.5091 46.5782 61.4361 46.6452 61.3271 46.7392L59.7701 48.1152L59.7691 48.1142Z" fill="#F93DBB"/>
    </g>
</svg>
