<svg width="1920" height="485" viewBox="0 0 1920 485" fill="none" xmlns="http://www.w3.org/2000/svg">
    <path d="M2509 -601C2509 -312.975 2343.96 -36.7468 2050.18 166.918C1756.41 370.582 1357.96 485 942.502 485C527.041 485 128.595 370.583 -165.181 166.92C-458.957 -36.7445 -623.999 -312.972 -624 -600.997L-555.098 -600.997C-555.097 -325.641 -397.314 -61.5632 -116.46 133.143C164.395 327.849 545.314 437.233 942.502 437.233C1339.69 437.232 1720.61 327.847 2001.46 133.141C2282.32 -61.5654 2440.1 -325.644 2440.1 -601L2509 -601Z" fill="white"/>
    <path d="M2509 -601C2509 -312.975 2343.96 -36.7468 2050.18 166.918C1756.41 370.582 1357.96 485 942.502 485C527.041 485 128.595 370.583 -165.181 166.92C-458.957 -36.7445 -623.999 -312.972 -624 -600.997L-555.098 -600.997C-555.097 -325.641 -397.314 -61.5632 -116.46 133.143C164.395 327.849 545.314 437.233 942.502 437.233C1339.69 437.232 1720.61 327.847 2001.46 133.141C2282.32 -61.5654 2440.1 -325.644 2440.1 -601L2509 -601Z" fill="url(#paint0_linear_2_346)"/>
    <defs>
        <linearGradient id="paint0_linear_2_346" x1="1031.93" y1="576.964" x2="-337.708" y2="-1903.41" gradientUnits="userSpaceOnUse">
            <stop stop-color="#7955A1"/>
            <stop offset="1" stop-color="#D14E9C"/>
        </linearGradient>
    </defs>
</svg>
