<svg width="612" height="318" viewBox="0 0 612 318" fill="none" xmlns="http://www.w3.org/2000/svg">
    <path d="M499.962 139.894C497.156 134.281 493.27 129.964 488.305 126.941C483.34 123.919 477.512 122.408 471.035 122.408C464.559 122.408 458.947 123.919 453.766 126.941C448.8 129.964 444.915 134.281 442.108 139.894C439.302 145.508 438.007 152.2 438.007 159.54V176.379C438.007 183.935 439.302 190.412 442.108 196.025C444.915 201.638 448.8 205.956 453.766 208.978C458.731 212 464.559 213.512 471.035 213.512C477.512 213.512 483.124 212 488.305 208.978C493.27 205.956 496.293 202.501 499.099 196.888C500.394 194.298 501.474 190.844 502.121 187.389L486.362 183.719C485.715 187.173 484.42 190.196 482.693 192.571C479.886 196.241 475.785 197.968 471.035 197.968C466.286 197.968 462.185 196.241 459.378 192.571C456.572 188.901 455.061 183.719 455.061 177.243V170.982H503.848V159.756C504.064 152.2 502.769 145.508 499.962 139.894ZM471.251 138.167C476 138.167 480.102 139.894 482.908 143.349C485.499 146.587 486.794 151.552 487.01 157.165H455.493C455.708 151.552 457.22 146.587 459.594 143.349C462.4 139.679 466.502 138.167 471.251 138.167Z" fill="white"/>
    <path d="M378.426 211.784V154.143C378.426 149.393 379.721 145.507 382.527 142.701C385.333 139.894 388.572 138.383 392.889 138.383C396.991 138.383 400.445 139.894 403.251 142.701C406.057 145.507 407.352 149.393 407.352 154.143V211.784H424.406V150.473C424.406 141.621 422.032 134.713 417.499 129.748C412.965 124.782 406.705 122.192 398.718 122.192C394.4 122.192 390.514 123.055 386.845 124.782C383.175 126.509 380.368 128.884 378.641 131.259V87.6499H361.587V211.784H378.426Z" fill="white"/>
    <path d="M300.495 177.458C300.495 183.935 302.006 189.116 304.813 192.57C307.619 196.24 311.937 197.751 316.47 197.751C324.889 197.751 330.07 192.354 332.229 181.56L347.987 185.23C346.692 194.297 343.454 201.206 338.057 206.171C332.876 211.136 325.537 213.727 316.47 213.727C306.54 213.727 298.553 210.273 292.508 203.58C286.464 196.888 283.441 187.605 283.441 176.163V159.756C283.441 148.314 286.464 139.031 292.508 132.338C298.553 125.646 306.54 122.191 316.47 122.191C325.537 122.191 332.876 124.782 338.057 129.747C343.238 134.713 346.692 141.837 347.987 150.688L332.229 154.358C330.286 143.564 325.105 138.167 316.47 138.167C311.721 138.167 307.619 139.894 304.813 143.348C302.006 147.018 300.495 152.2 300.495 158.46V177.458Z" fill="white"/>
    <path d="M237.461 197.968C232.711 197.968 228.61 196.241 225.804 192.571C222.997 188.901 221.486 183.719 221.486 177.243V158.676C221.486 152.2 222.997 147.019 225.804 143.564C228.61 139.894 232.711 138.383 237.461 138.383C242.21 138.383 246.311 140.11 249.118 143.564C251.924 147.235 253.435 152.416 253.435 158.676V177.243C253.435 183.719 251.924 188.901 249.118 192.571C246.096 196.241 241.994 197.968 237.461 197.968ZM237.461 213.943C243.937 213.943 249.55 212.432 254.731 209.41C259.696 206.387 263.581 202.07 266.388 196.457C269.194 190.844 270.489 184.151 270.489 176.811V159.756C270.489 152.2 269.194 145.723 266.388 140.11C263.581 134.497 259.696 130.18 254.731 127.157C249.765 124.135 243.937 122.624 237.461 122.624C230.985 122.624 225.372 124.135 220.191 127.157C215.226 130.18 211.34 134.497 208.534 140.11C205.727 145.723 204.432 152.416 204.432 159.756V176.595C204.432 184.151 205.727 190.628 208.534 196.241C211.34 201.854 215.226 206.171 220.191 209.194C225.156 212.432 230.985 213.943 237.461 213.943Z" fill="white"/>
    <path d="M145.93 140.11V104.057H163.2C167.734 104.057 171.403 105.568 173.994 108.591C176.584 111.613 177.88 116.147 177.88 122.192C177.88 128.236 176.584 132.986 173.994 135.792C171.403 138.815 167.949 140.326 163.2 140.326H145.93V140.11ZM145.93 211.784V156.518H160.61C164.711 156.518 167.518 157.597 169.461 159.324C171.188 161.267 172.267 164.289 172.699 168.607L177.448 211.784H194.502L189.321 167.096C188.673 161.699 188.026 158.245 185.867 155.006C183.924 152.2 181.118 149.825 177.88 148.746C183.061 146.155 187.162 142.701 190.184 138.383C193.207 133.849 194.718 127.805 194.718 120.033C194.718 109.886 191.911 102.114 186.299 96.2853C180.686 90.4564 172.915 87.6499 163.2 87.6499H129.092V211.784H145.93Z" fill="white"/>
    <path d="M612 159.108L473.841 318.216H138.159L0 159.108L138.159 0H473.625L612 159.108ZM466.286 301.809L590.413 158.892L466.286 16.1914H145.498L21.3714 159.108L145.498 302.024H466.286V301.809Z" fill="white"/>
</svg>
